<?xml version="1.0" encoding="utf-8" standalone="no"?>
<!DOCTYPE svg PUBLIC "-//W3C//DTD SVG 1.1//EN"
  "http://www.w3.org/Graphics/SVG/1.1/DTD/svg11.dtd">
<svg xmlns:xlink="http://www.w3.org/1999/xlink" width="548.546111pt" height="462.9761pt" viewBox="0 0 548.546111 462.9761" xmlns="http://www.w3.org/2000/svg" version="1.1">
 <metadata>
  <rdf:RDF xmlns:dc="http://purl.org/dc/elements/1.1/" xmlns:cc="http://creativecommons.org/ns#" xmlns:rdf="http://www.w3.org/1999/02/22-rdf-syntax-ns#">
   <cc:Work>
    <dc:type rdf:resource="http://purl.org/dc/dcmitype/StillImage"/>
    <dc:date>2025-02-20T15:58:29.875233</dc:date>
    <dc:format>image/svg+xml</dc:format>
    <dc:creator>
     <cc:Agent>
      <dc:title>Matplotlib v3.9.2, https://matplotlib.org/</dc:title>
     </cc:Agent>
    </dc:creator>
   </cc:Work>
  </rdf:RDF>
 </metadata>
 <defs>
  <style type="text/css">*{stroke-linejoin: round; stroke-linecap: butt}</style>
 </defs>
 <g id="figure_1">
  <g id="patch_1">
   <path d="M 0 462.9761 
L 548.546111 462.9761 
L 548.546111 0 
L 0 0 
z
" style="fill: #ffffff"/>
  </g>
  <g id="axes_1">
   <g id="patch_2">
    <path d="M 461.539798 225.36 
C 461.539798 196.238744 455.803546 167.400655 444.659324 140.496122 
C 433.515101 113.591589 417.179636 89.143838 396.587798 68.552 
C 375.99596 47.960162 351.548209 31.624697 324.643676 20.480475 
C 297.739144 9.336253 268.901055 3.6 239.779798 3.6 
C 210.658542 3.6 181.820453 9.336253 154.91592 20.480475 
C 128.011388 31.624697 103.563636 47.960162 82.971799 68.552 
C 62.379961 89.143838 46.044496 113.591589 34.900273 140.496122 
C 23.756051 167.400655 18.019798 196.238744 18.019798 225.36 
C 18.019798 254.481256 23.756051 283.319345 34.900273 310.223878 
C 46.044496 337.128411 62.379961 361.576162 82.971799 382.168 
C 103.563636 402.759838 128.011388 419.095303 154.91592 430.239525 
C 181.820453 441.383747 210.658542 447.12 239.779798 447.12 
C 268.901055 447.12 297.739144 441.383747 324.643676 430.239525 
C 351.548209 419.095303 375.99596 402.759838 396.587798 382.168 
C 417.179636 361.576162 433.515101 337.128411 444.659324 310.223878 
C 455.803546 283.319345 461.539798 254.481256 461.539798 225.36 
M 239.779798 225.36 
C 239.779798 225.36 239.779798 225.36 239.779798 225.36 
C 239.779798 225.36 239.779798 225.36 239.779798 225.36 
C 239.779798 225.36 239.779798 225.36 239.779798 225.36 
C 239.779798 225.36 239.779798 225.36 239.779798 225.36 
C 239.779798 225.36 239.779798 225.36 239.779798 225.36 
C 239.779798 225.36 239.779798 225.36 239.779798 225.36 
C 239.779798 225.36 239.779798 225.36 239.779798 225.36 
C 239.779798 225.36 239.779798 225.36 239.779798 225.36 
C 239.779798 225.36 239.779798 225.36 239.779798 225.36 
C 239.779798 225.36 239.779798 225.36 239.779798 225.36 
C 239.779798 225.36 239.779798 225.36 239.779798 225.36 
C 239.779798 225.36 239.779798 225.36 239.779798 225.36 
C 239.779798 225.36 239.779798 225.36 239.779798 225.36 
C 239.779798 225.36 239.779798 225.36 239.779798 225.36 
C 239.779798 225.36 239.779798 225.36 239.779798 225.36 
C 239.779798 225.36 239.779798 225.36 239.779798 225.36 
z
" style="fill: #ffffff"/>
   </g>
   <g id="patch_3">
    <path d="M 361.029306 225.36 
L 309.492488 137.943052 
L 211.604686 101.916766 
L 125.701097 170.422593 
L 137.263127 274.729427 
L 217.352786 323.619163 
L 286.653339 284.137561 
z
" clip-path="url(#pfbecce41f5)" style="fill: #ff0000; opacity: 0.2; stroke: #ff0000; stroke-linejoin: miter"/>
   </g>
   <g id="patch_4">
    <path d="M 366.397605 225.36 
L 318.724709 126.366213 
L 213.546699 110.425283 
L 126.136512 170.632277 
L 125.701097 280.297407 
L 211.604686 348.803234 
L 318.724709 324.353787 
z
" clip-path="url(#pfbecce41f5)" style="fill: #9400d3; opacity: 0.2; stroke: #9400d3; stroke-linejoin: miter"/>
   </g>
   <g id="patch_5">
    <path d="M 321.414963 225.36 
L 248.446781 214.491947 
L 221.537607 145.435737 
L 197.689692 205.090473 
L 225.13456 232.412775 
L 232.005729 259.420424 
L 268.013569 260.764028 
z
" clip-path="url(#pfbecce41f5)" style="fill: #0000ff; opacity: 0.2; stroke: #0000ff; stroke-linejoin: miter"/>
   </g>
   <g id="matplotlib.axis_1"/>
   <g id="matplotlib.axis_2"/>
   <g id="line2d_1">
    <path d="M 361.029306 225.36 
L 309.492488 137.943052 
L 211.604686 101.916766 
L 125.701097 170.422593 
L 137.263127 274.729427 
L 217.352786 323.619163 
L 286.653339 284.137561 
L 361.029306 225.36 
" clip-path="url(#pfbecce41f5)" style="fill: none; stroke: #ff0000; stroke-width: 2; stroke-linecap: square"/>
   </g>
   <g id="line2d_2">
    <path d="M 366.397605 225.36 
L 318.724709 126.366213 
L 213.546699 110.425283 
L 126.136512 170.632277 
L 125.701097 280.297407 
L 211.604686 348.803234 
L 318.724709 324.353787 
L 366.397605 225.36 
" clip-path="url(#pfbecce41f5)" style="fill: none; stroke: #9400d3; stroke-width: 2; stroke-linecap: square"/>
   </g>
   <g id="line2d_3">
    <path d="M 321.414963 225.36 
L 248.446781 214.491947 
L 221.537607 145.435737 
L 197.689692 205.090473 
L 225.13456 232.412775 
L 232.005729 259.420424 
L 268.013569 260.764028 
L 321.414963 225.36 
" clip-path="url(#pfbecce41f5)" style="fill: none; stroke: #0000ff; stroke-width: 2; stroke-linecap: square"/>
   </g>
   <g id="line2d_4">
    <path d="M 325.622379 225.36 
L 325.451282 219.94285 
L 324.938674 214.547294 
L 324.086597 209.194841 
L 322.898448 203.906826 
L 321.378965 198.704331 
L 319.534203 193.608093 
L 317.371516 188.638427 
L 314.899527 183.815144 
L 312.128088 179.157471 
L 309.068247 174.683975 
L 305.732203 170.412488 
L 302.133252 166.360039 
L 298.285743 162.54278 
L 294.205012 158.97593 
L 289.907326 155.673705 
L 285.409816 152.649271 
L 280.730413 149.914683 
L 275.887768 147.480842 
L 270.901186 145.357451 
L 265.790545 143.552973 
L 260.576218 142.074602 
L 255.27899 140.92823 
L 249.919977 140.118429 
L 244.520543 139.648426 
L 239.102211 139.520094 
L 233.68658 139.733945 
L 228.295239 140.289126 
L 222.949678 141.183425 
L 217.671207 142.413277 
L 212.480867 143.973779 
L 207.399349 145.85871 
L 202.446909 148.060556 
L 197.643289 150.570541 
L 193.007637 153.378658 
L 188.558433 156.473714 
L 184.313412 159.843371 
L 180.289496 163.474197 
L 176.502727 167.351717 
L 172.968198 171.460476 
L 169.7 175.784094 
L 166.71116 180.305336 
L 164.013594 185.006179 
L 161.618053 189.867884 
L 159.534089 194.871072 
L 157.770007 199.995797 
L 156.332841 205.221631 
L 155.228318 210.527742 
L 154.460843 215.89298 
L 154.033474 221.295956 
L 153.947915 226.715132 
L 154.204507 232.128906 
L 154.802227 237.515697 
L 155.738693 242.854033 
L 157.010171 248.122631 
L 158.611593 253.300492 
L 160.536575 258.366973 
L 162.777445 263.301879 
L 165.325268 268.085537 
L 168.169889 272.698879 
L 171.299968 277.123515 
L 174.703027 281.341805 
L 178.365502 285.336936 
L 182.272792 289.092981 
L 186.409322 292.594968 
L 190.758602 295.828936 
L 195.303295 298.781995 
L 200.025285 301.442372 
L 204.905748 303.799462 
L 209.925229 305.84387 
L 215.063719 307.567445 
L 220.300734 308.963318 
L 225.615399 310.025923 
L 230.986527 310.751024 
L 236.392708 311.135732 
L 241.81239 311.178513 
L 247.223971 310.879196 
L 252.605876 310.238975 
L 257.936653 309.260401 
L 263.195052 307.947375 
L 268.36011 306.305132 
L 273.411239 304.340218 
L 278.328303 302.060466 
L 283.091702 299.474963 
L 287.682446 296.594016 
L 292.082237 293.429109 
L 296.273534 289.992859 
L 300.239631 286.298963 
L 303.964718 282.362147 
L 307.433944 278.198103 
L 310.633482 273.823432 
L 313.550575 269.255571 
L 316.173597 264.512729 
L 318.492091 259.613813 
L 320.496814 254.578351 
L 322.179776 249.426416 
L 323.534267 244.178546 
L 324.554888 238.855659 
L 325.237571 233.478975 
L 325.579594 228.069926 
L 325.622379 225.36 
L 325.622379 225.36 
" clip-path="url(#pfbecce41f5)" style="fill: none; stroke-dasharray: 3.7,1.6; stroke-dashoffset: 0; stroke: #808080"/>
   </g>
   <g id="line2d_5">
    <path d="M 347.083024 225.36 
L 346.869153 218.588562 
L 346.228392 211.844117 
L 345.163297 205.153551 
L 343.678111 198.543533 
L 341.778756 192.040414 
L 339.472804 185.670116 
L 336.769446 179.458033 
L 333.679459 173.42893 
L 330.21516 167.606839 
L 326.390359 162.014969 
L 322.220304 156.67561 
L 317.721616 151.610048 
L 312.912229 146.838475 
L 307.811315 142.379912 
L 302.439207 138.252132 
L 296.817321 134.471589 
L 290.968066 131.053354 
L 284.91476 128.011053 
L 278.681533 125.356813 
L 272.293232 123.101216 
L 265.775323 121.253252 
L 259.153788 119.820288 
L 252.455022 118.808036 
L 245.70573 118.220532 
L 238.932815 118.060117 
L 232.163276 118.327431 
L 225.424099 119.021408 
L 218.742148 120.139282 
L 212.144059 121.676596 
L 205.656135 123.627223 
L 199.304237 125.983387 
L 193.113687 128.735695 
L 187.109162 131.873176 
L 181.314597 135.383323 
L 175.753091 139.252143 
L 170.446815 143.464214 
L 165.416921 148.002746 
L 160.683459 152.849647 
L 156.265298 157.985595 
L 152.18005 163.390117 
L 148.444001 169.04167 
L 145.072042 174.917724 
L 142.077617 180.994855 
L 139.472662 187.248839 
L 137.26756 193.654746 
L 135.471101 200.187038 
L 134.090448 206.819678 
L 133.131104 213.526225 
L 132.596893 220.279944 
L 132.489944 227.053915 
L 132.810684 233.821132 
L 133.557834 240.554622 
L 134.728416 247.227541 
L 136.317764 253.813289 
L 138.319542 260.285615 
L 140.72577 266.618716 
L 143.526856 272.787349 
L 146.711635 278.766922 
L 150.267411 284.533599 
L 154.18001 290.064393 
L 158.433835 295.337257 
L 163.011928 300.33117 
L 167.896041 305.026226 
L 173.066703 309.40371 
L 178.503303 313.44617 
L 184.18417 317.137494 
L 190.086657 320.462965 
L 196.187235 323.409328 
L 202.461586 325.964837 
L 208.884699 328.119307 
L 215.430968 329.864147 
L 222.074299 331.192403 
L 228.788209 332.09878 
L 235.545935 332.579666 
L 242.320538 332.633142 
L 249.085014 332.258995 
L 255.812396 331.458719 
L 262.475867 330.235501 
L 269.048865 328.594219 
L 275.505188 326.541415 
L 281.819099 324.085273 
L 287.965429 321.235582 
L 293.919678 318.003703 
L 299.658108 314.40252 
L 305.157846 310.446386 
L 310.396968 306.151074 
L 315.35459 301.533704 
L 320.010948 296.612684 
L 324.347481 291.407629 
L 328.346902 285.93929 
L 331.99327 280.229463 
L 335.272047 274.300911 
L 338.170164 268.177266 
L 340.676068 261.882939 
L 342.77977 255.44302 
L 344.472884 248.883182 
L 345.748661 242.229574 
L 346.602014 235.508718 
L 347.029543 228.747407 
L 347.083024 225.36 
L 347.083024 225.36 
" clip-path="url(#pfbecce41f5)" style="fill: none; stroke-dasharray: 3.7,1.6; stroke-dashoffset: 0; stroke: #808080"/>
   </g>
   <g id="line2d_6">
    <path d="M 368.543669 225.36 
L 368.479492 221.295111 
L 368.287024 217.234275 
L 367.966457 213.181538 
L 367.518111 209.140941 
L 366.942433 205.116511 
L 366.239996 201.112261 
L 365.411501 197.132181 
L 364.457774 193.18024 
L 363.379764 189.260375 
L 362.178548 185.376496 
L 360.855322 181.532473 
L 359.411405 177.732139 
L 357.848237 173.979281 
L 356.167375 170.27764 
L 354.370496 166.630907 
L 352.459391 163.042716 
L 350.435964 159.516644 
L 348.302232 156.056206 
L 346.060323 152.664852 
L 343.712472 149.345962 
L 341.261017 146.102845 
L 338.708405 142.938733 
L 336.057178 139.85678 
L 333.309979 136.860058 
L 330.469548 133.951555 
L 327.538715 131.13417 
L 324.520402 128.410712 
L 321.417618 125.783894 
L 318.233456 123.256337 
L 314.971089 120.830558 
L 311.63377 118.508977 
L 308.224826 116.293907 
L 304.747653 114.187556 
L 301.20572 112.192025 
L 297.602556 110.309302 
L 293.941752 108.541264 
L 290.226959 106.889673 
L 286.46188 105.356176 
L 282.650266 103.942302 
L 278.795918 102.649459 
L 274.902678 101.478937 
L 270.974427 100.431902 
L 267.015081 99.509399 
L 263.028585 98.712346 
L 259.018915 98.041538 
L 254.990067 97.497644 
L 250.946057 97.081205 
L 246.890916 96.792638 
L 242.828687 96.63223 
L 238.763418 96.60014 
L 234.699162 96.696401 
L 230.639971 96.920917 
L 226.589891 97.273464 
L 222.552959 97.75369 
L 218.533199 98.361116 
L 214.534618 99.095138 
L 210.561202 99.955024 
L 206.616911 100.939916 
L 202.705679 102.048832 
L 198.831402 103.280668 
L 194.997944 104.634195 
L 191.209125 106.108064 
L 187.468722 107.700807 
L 183.780465 109.410834 
L 180.148028 111.236442 
L 176.575034 113.175811 
L 173.065044 115.227008 
L 169.621556 117.387987 
L 166.248004 119.656596 
L 162.94775 122.030571 
L 159.724084 124.507548 
L 156.580219 127.085057 
L 153.519289 129.760528 
L 150.544345 132.531295 
L 147.658354 135.394596 
L 144.864191 138.347576 
L 142.164642 141.387292 
L 139.562398 144.510714 
L 137.060052 147.714728 
L 134.6601 150.996141 
L 132.364934 154.351681 
L 130.176841 157.778004 
L 128.098003 161.271694 
L 126.130491 164.829268 
L 124.276268 168.447181 
L 122.537181 172.121826 
L 120.914964 175.84954 
L 119.411234 179.626607 
L 118.02749 183.449262 
L 116.765112 187.313695 
L 115.625357 191.216053 
L 114.609362 195.152446 
L 113.71814 199.118951 
L 112.952578 203.111614 
L 112.313441 207.126454 
L 111.801365 211.15947 
L 111.416861 215.206641 
L 111.160311 219.263933 
L 111.031973 223.327302 
L 111.031973 227.392698 
L 111.160311 231.456067 
L 111.416861 235.513359 
L 111.801365 239.56053 
L 112.313441 243.593546 
L 112.952578 247.608386 
L 113.71814 251.601049 
L 114.609362 255.567554 
L 115.625357 259.503947 
L 116.765112 263.406305 
L 118.02749 267.270738 
L 119.411234 271.093393 
L 120.914964 274.87046 
L 122.537181 278.598174 
L 124.276268 282.272819 
L 126.130491 285.890732 
L 128.098003 289.448306 
L 130.176841 292.941996 
L 132.364934 296.368319 
L 134.6601 299.723859 
L 137.060052 303.005272 
L 139.562398 306.209286 
L 142.164642 309.332708 
L 144.864191 312.372424 
L 147.658354 315.325404 
L 150.544345 318.188705 
L 153.519289 320.959472 
L 156.580219 323.634943 
L 159.724084 326.212452 
L 162.94775 328.689429 
L 166.248004 331.063404 
L 169.621556 333.332013 
L 173.065044 335.492992 
L 176.575034 337.544189 
L 180.148028 339.483558 
L 183.780465 341.309166 
L 187.468722 343.019193 
L 191.209125 344.611936 
L 194.997944 346.085805 
L 198.831402 347.439332 
L 202.705679 348.671168 
L 206.616911 349.780084 
L 210.561202 350.764976 
L 214.534618 351.624862 
L 218.533199 352.358884 
L 222.552959 352.96631 
L 226.589891 353.446536 
L 230.639971 353.799083 
L 234.699162 354.023599 
L 238.763418 354.11986 
L 242.828687 354.08777 
L 246.890916 353.927362 
L 250.946057 353.638795 
L 254.990067 353.222356 
L 259.018915 352.678462 
L 263.028585 352.007654 
L 267.015081 351.210601 
L 270.974427 350.288098 
L 274.902678 349.241063 
L 278.795918 348.070541 
L 282.650266 346.777698 
L 286.46188 345.363824 
L 290.226959 343.830327 
L 293.941752 342.178736 
L 297.602556 340.410698 
L 301.20572 338.527975 
L 304.747653 336.532444 
L 308.224826 334.426093 
L 311.63377 332.211023 
L 314.971089 329.889442 
L 318.233456 327.463663 
L 321.417618 324.936106 
L 324.520402 322.309288 
L 327.538715 319.58583 
L 330.469548 316.768445 
L 333.309979 313.859942 
L 336.057178 310.86322 
L 338.708405 307.781267 
L 341.261017 304.617155 
L 343.712472 301.374038 
L 346.060323 298.055148 
L 348.302232 294.663794 
L 350.435964 291.203356 
L 352.459391 287.677284 
L 354.370496 284.089093 
L 356.167375 280.44236 
L 357.848237 276.740719 
L 359.411405 272.987861 
L 360.855322 269.187527 
L 362.178548 265.343504 
L 363.379764 261.459625 
L 364.457774 257.53976 
L 365.411501 253.587819 
L 366.239996 249.607739 
L 366.942433 245.603489 
L 367.518111 241.579059 
L 367.966457 237.538462 
L 368.287024 233.485725 
L 368.479492 229.424889 
L 368.543669 225.36 
L 368.543669 225.36 
" clip-path="url(#pfbecce41f5)" style="fill: none; stroke-dasharray: 3.7,1.6; stroke-dashoffset: 0; stroke: #808080"/>
   </g>
   <g id="line2d_7">
    <path d="M 239.779798 225.36 
L 407.172831 225.36 
" clip-path="url(#pfbecce41f5)" style="fill: none; stroke-dasharray: 3.7,1.6; stroke-dashoffset: 0; stroke: #808080; stroke-opacity: 0.6"/>
   </g>
   <g id="line2d_8">
    <path d="M 239.779798 225.36 
L 344.147647 94.486857 
" clip-path="url(#pfbecce41f5)" style="fill: none; stroke-dasharray: 3.7,1.6; stroke-dashoffset: 0; stroke: #808080; stroke-opacity: 0.6"/>
   </g>
   <g id="line2d_9">
    <path d="M 239.779798 225.36 
L 202.531345 62.163861 
" clip-path="url(#pfbecce41f5)" style="fill: none; stroke-dasharray: 3.7,1.6; stroke-dashoffset: 0; stroke: #808080; stroke-opacity: 0.6"/>
   </g>
   <g id="line2d_10">
    <path d="M 239.779798 225.36 
L 88.963888 152.730885 
" clip-path="url(#pfbecce41f5)" style="fill: none; stroke-dasharray: 3.7,1.6; stroke-dashoffset: 0; stroke: #808080; stroke-opacity: 0.6"/>
   </g>
   <g id="line2d_11">
    <path d="M 239.779798 225.36 
L 88.963888 297.989115 
" clip-path="url(#pfbecce41f5)" style="fill: none; stroke-dasharray: 3.7,1.6; stroke-dashoffset: 0; stroke: #808080; stroke-opacity: 0.6"/>
   </g>
   <g id="line2d_12">
    <path d="M 239.779798 225.36 
L 202.531345 388.556139 
" clip-path="url(#pfbecce41f5)" style="fill: none; stroke-dasharray: 3.7,1.6; stroke-dashoffset: 0; stroke: #808080; stroke-opacity: 0.6"/>
   </g>
   <g id="line2d_13">
    <path d="M 239.779798 225.36 
L 344.147647 356.233143 
" clip-path="url(#pfbecce41f5)" style="fill: none; stroke-dasharray: 3.7,1.6; stroke-dashoffset: 0; stroke: #808080; stroke-opacity: 0.6"/>
   </g>
   <g id="line2d_14">
    <path d="M 461.539798 225.36 
L 461.395439 217.359674 
L 460.962551 209.369763 
L 460.241696 201.400671 
L 459.233813 193.462773 
L 457.940215 185.566402 
L 456.362585 177.721841 
L 454.502978 169.939301 
L 452.363814 162.228916 
L 449.94788 154.600724 
L 447.258319 147.064656 
L 444.298635 139.630523 
L 441.072679 132.308005 
L 437.584653 125.106635 
L 433.839096 118.035788 
L 429.840887 111.104671 
L 425.59523 104.322308 
L 421.107653 97.697528 
L 416.383998 91.238956 
L 411.430415 84.955002 
L 406.253354 78.853847 
L 400.859554 72.943433 
L 395.256039 67.231457 
L 389.450103 61.725354 
L 383.449306 56.432293 
L 377.26146 51.359166 
L 370.894621 46.512577 
L 364.357079 41.898836 
L 357.657345 37.52395 
L 350.804142 33.393616 
L 343.806392 29.513209 
L 336.673205 25.887783 
L 329.41387 22.522058 
L 322.037836 19.420415 
L 314.554708 16.586892 
L 306.974227 14.02518 
L 299.306263 11.738612 
L 291.5608 9.730166 
L 283.747921 8.002456 
L 275.877798 6.557733 
L 267.960678 5.397877 
L 260.006867 4.524398 
L 252.026723 3.938433 
L 244.030634 3.640745 
L 236.02901 3.631722 
L 228.03227 3.911376 
L 220.050824 4.479342 
L 212.095065 5.334881 
L 204.175349 6.476879 
L 196.301988 7.903849 
L 190.433556 9.159986 
L 190.433556 9.159986 
" clip-path="url(#pfbecce41f5)" style="fill: none; stroke: #000000; stroke-opacity: 0.7; stroke-width: 2; stroke-linecap: square"/>
   </g>
   <g id="line2d_15">
    <path d="M 39.980942 129.141942 
L 37.04306 135.497258 
L 34.307269 141.942152 
L 31.776299 148.470198 
L 29.45267 155.074889 
L 27.338701 161.749643 
L 25.436497 168.487804 
L 23.747955 175.282657 
L 22.274759 182.127428 
L 21.018376 189.015294 
L 19.980059 195.93939 
L 19.160844 202.892812 
L 18.561546 209.868631 
L 18.182764 216.859891 
L 18.024874 223.859625 
L 18.088034 230.860854 
L 18.372182 237.8566 
L 18.877033 244.839889 
L 19.602086 251.80376 
L 20.546616 258.741271 
L 21.709682 265.645507 
L 23.090126 272.509585 
L 24.68657 279.326664 
L 26.497424 286.089948 
L 28.520883 292.792695 
L 30.754929 299.428223 
L 33.197336 305.989919 
L 35.845668 312.471241 
L 38.697287 318.865728 
L 39.980942 321.578058 
L 39.980942 321.578058 
" clip-path="url(#pfbecce41f5)" style="fill: none; stroke: #000000; stroke-opacity: 0.7; stroke-width: 2; stroke-linecap: square"/>
   </g>
   <g id="line2d_16">
    <path d="M 190.433556 441.560014 
L 197.283272 443.010047 
L 204.175349 444.243121 
L 211.102917 445.258008 
L 218.059071 446.053696 
L 225.036877 446.629392 
L 232.029379 446.984522 
L 239.029606 447.118731 
L 246.030582 447.031887 
L 253.025326 446.724075 
L 260.006867 446.195602 
L 266.968246 445.446996 
L 273.902522 444.479003 
L 280.802784 443.292586 
L 287.662153 441.88893 
L 294.473793 440.269433 
L 301.230912 438.43571 
L 307.926775 436.389588 
L 314.554708 434.133108 
L 321.108104 431.668517 
L 327.580429 428.998274 
L 333.965234 426.12504 
L 340.256152 423.051679 
L 346.446913 419.781255 
L 352.531346 416.317027 
L 358.503386 412.662449 
L 364.357079 408.821164 
L 370.086591 404.797001 
L 375.686211 400.593971 
L 378.044897 398.73895 
L 378.044897 398.73895 
" clip-path="url(#pfbecce41f5)" style="fill: none; stroke: #000000; stroke-opacity: 0.7; stroke-width: 2; stroke-linecap: square"/>
   </g>
   <g id="text_1">
    <!-- 46 -->
    <g style="fill: #808080" transform="translate(321.483798 222.365312) scale(0.14 -0.14)">
     <defs>
      <path id="TimesNewRomanPSMT-34" d="M 2978 1563 
L 2978 1119 
L 2409 1119 
L 2409 0 
L 1894 0 
L 1894 1119 
L 100 1119 
L 100 1519 
L 2066 4325 
L 2409 4325 
L 2409 1563 
L 2978 1563 
z
M 1894 1563 
L 1894 3666 
L 406 1563 
L 1894 1563 
z
" transform="scale(0.015625)"/>
      <path id="TimesNewRomanPSMT-36" d="M 2869 4325 
L 2869 4209 
Q 2456 4169 2195 4045 
Q 1934 3922 1679 3669 
Q 1425 3416 1258 3105 
Q 1091 2794 978 2366 
Q 1428 2675 1881 2675 
Q 2316 2675 2634 2325 
Q 2953 1975 2953 1425 
Q 2953 894 2631 456 
Q 2244 -75 1606 -75 
Q 1172 -75 869 213 
Q 275 772 275 1663 
Q 275 2231 503 2743 
Q 731 3256 1154 3653 
Q 1578 4050 1965 4187 
Q 2353 4325 2688 4325 
L 2869 4325 
z
M 925 2138 
Q 869 1716 869 1456 
Q 869 1156 980 804 
Q 1091 453 1309 247 
Q 1469 100 1697 100 
Q 1969 100 2183 356 
Q 2397 613 2397 1088 
Q 2397 1622 2184 2012 
Q 1972 2403 1581 2403 
Q 1463 2403 1327 2353 
Q 1191 2303 925 2138 
z
" transform="scale(0.015625)"/>
     </defs>
     <use xlink:href="#TimesNewRomanPSMT-34"/>
     <use xlink:href="#TimesNewRomanPSMT-36" x="50"/>
    </g>
   </g>
   <g id="text_2">
    <!-- 28 -->
    <g style="fill: #808080" transform="translate(288.085838 153.013733) scale(0.14 -0.14)">
     <defs>
      <path id="TimesNewRomanPSMT-32" d="M 2934 816 
L 2638 0 
L 138 0 
L 138 116 
Q 1241 1122 1691 1759 
Q 2141 2397 2141 2925 
Q 2141 3328 1894 3587 
Q 1647 3847 1303 3847 
Q 991 3847 742 3664 
Q 494 3481 375 3128 
L 259 3128 
Q 338 3706 661 4015 
Q 984 4325 1469 4325 
Q 1984 4325 2329 3994 
Q 2675 3663 2675 3213 
Q 2675 2891 2525 2569 
Q 2294 2063 1775 1497 
Q 997 647 803 472 
L 1909 472 
Q 2247 472 2383 497 
Q 2519 522 2628 598 
Q 2738 675 2819 816 
L 2934 816 
z
" transform="scale(0.015625)"/>
      <path id="TimesNewRomanPSMT-38" d="M 1228 2134 
Q 725 2547 579 2797 
Q 434 3047 434 3316 
Q 434 3728 753 4026 
Q 1072 4325 1600 4325 
Q 2113 4325 2425 4047 
Q 2738 3769 2738 3413 
Q 2738 3175 2569 2928 
Q 2400 2681 1866 2347 
Q 2416 1922 2594 1678 
Q 2831 1359 2831 1006 
Q 2831 559 2490 242 
Q 2150 -75 1597 -75 
Q 994 -75 656 303 
Q 388 606 388 966 
Q 388 1247 577 1523 
Q 766 1800 1228 2134 
z
M 1719 2469 
Q 2094 2806 2194 3001 
Q 2294 3197 2294 3444 
Q 2294 3772 2109 3958 
Q 1925 4144 1606 4144 
Q 1288 4144 1088 3959 
Q 888 3775 888 3528 
Q 888 3366 970 3203 
Q 1053 3041 1206 2894 
L 1719 2469 
z
M 1375 2016 
Q 1116 1797 991 1539 
Q 866 1281 866 981 
Q 866 578 1086 336 
Q 1306 94 1647 94 
Q 1984 94 2187 284 
Q 2391 475 2391 747 
Q 2391 972 2272 1150 
Q 2050 1481 1375 2016 
z
" transform="scale(0.015625)"/>
     </defs>
     <use xlink:href="#TimesNewRomanPSMT-32"/>
     <use xlink:href="#TimesNewRomanPSMT-38" x="50"/>
    </g>
   </g>
   <g id="text_3">
    <!-- 60 -->
    <g style="fill: #808080" transform="translate(213.041301 135.885307) scale(0.14 -0.14)">
     <defs>
      <path id="TimesNewRomanPSMT-30" d="M 231 2094 
Q 231 2819 450 3342 
Q 669 3866 1031 4122 
Q 1313 4325 1613 4325 
Q 2100 4325 2488 3828 
Q 2972 3213 2972 2159 
Q 2972 1422 2759 906 
Q 2547 391 2217 158 
Q 1888 -75 1581 -75 
Q 975 -75 572 641 
Q 231 1244 231 2094 
z
M 844 2016 
Q 844 1141 1059 588 
Q 1238 122 1591 122 
Q 1759 122 1940 273 
Q 2122 425 2216 781 
Q 2359 1319 2359 2297 
Q 2359 3022 2209 3506 
Q 2097 3866 1919 4016 
Q 1791 4119 1609 4119 
Q 1397 4119 1231 3928 
Q 1006 3669 925 3112 
Q 844 2556 844 2016 
z
" transform="scale(0.015625)"/>
     </defs>
     <use xlink:href="#TimesNewRomanPSMT-36"/>
     <use xlink:href="#TimesNewRomanPSMT-30" x="50"/>
    </g>
   </g>
   <g id="text_4">
    <!-- 53 -->
    <g style="fill: #808080" transform="translate(152.860256 183.878089) scale(0.14 -0.14)">
     <defs>
      <path id="TimesNewRomanPSMT-35" d="M 2778 4238 
L 2534 3706 
L 1259 3706 
L 981 3138 
Q 1809 3016 2294 2522 
Q 2709 2097 2709 1522 
Q 2709 1188 2573 903 
Q 2438 619 2231 419 
Q 2025 219 1772 97 
Q 1413 -75 1034 -75 
Q 653 -75 479 54 
Q 306 184 306 341 
Q 306 428 378 495 
Q 450 563 559 563 
Q 641 563 702 538 
Q 763 513 909 409 
Q 1144 247 1384 247 
Q 1750 247 2026 523 
Q 2303 800 2303 1197 
Q 2303 1581 2056 1914 
Q 1809 2247 1375 2428 
Q 1034 2569 447 2591 
L 1259 4238 
L 2778 4238 
z
" transform="scale(0.015625)"/>
      <path id="TimesNewRomanPSMT-33" d="M 325 3431 
Q 506 3859 782 4092 
Q 1059 4325 1472 4325 
Q 1981 4325 2253 3994 
Q 2459 3747 2459 3466 
Q 2459 3003 1878 2509 
Q 2269 2356 2469 2072 
Q 2669 1788 2669 1403 
Q 2669 853 2319 450 
Q 1863 -75 997 -75 
Q 569 -75 414 31 
Q 259 138 259 259 
Q 259 350 332 419 
Q 406 488 509 488 
Q 588 488 669 463 
Q 722 447 909 348 
Q 1097 250 1169 231 
Q 1284 197 1416 197 
Q 1734 197 1970 444 
Q 2206 691 2206 1028 
Q 2206 1275 2097 1509 
Q 2016 1684 1919 1775 
Q 1784 1900 1550 2001 
Q 1316 2103 1072 2103 
L 972 2103 
L 972 2197 
Q 1219 2228 1467 2375 
Q 1716 2522 1828 2728 
Q 1941 2934 1941 3181 
Q 1941 3503 1739 3701 
Q 1538 3900 1238 3900 
Q 753 3900 428 3381 
L 325 3431 
z
" transform="scale(0.015625)"/>
     </defs>
     <use xlink:href="#TimesNewRomanPSMT-35"/>
     <use xlink:href="#TimesNewRomanPSMT-33" x="50"/>
    </g>
   </g>
   <g id="text_5">
    <!-- 20 -->
    <g style="fill: #808080" transform="translate(152.860256 260.852536) scale(0.14 -0.14)">
     <use xlink:href="#TimesNewRomanPSMT-32"/>
     <use xlink:href="#TimesNewRomanPSMT-30" x="50"/>
    </g>
   </g>
   <g id="text_6">
    <!-- 41 -->
    <g style="fill: #808080" transform="translate(213.041301 308.845318) scale(0.14 -0.14)">
     <defs>
      <path id="TimesNewRomanPSMT-31" d="M 750 3822 
L 1781 4325 
L 1884 4325 
L 1884 747 
Q 1884 391 1914 303 
Q 1944 216 2037 169 
Q 2131 122 2419 116 
L 2419 0 
L 825 0 
L 825 116 
Q 1125 122 1212 167 
Q 1300 213 1334 289 
Q 1369 366 1369 747 
L 1369 3034 
Q 1369 3497 1338 3628 
Q 1316 3728 1258 3775 
Q 1200 3822 1119 3822 
Q 1003 3822 797 3725 
L 750 3822 
z
" transform="scale(0.015625)"/>
     </defs>
     <use xlink:href="#TimesNewRomanPSMT-34"/>
     <use xlink:href="#TimesNewRomanPSMT-31" x="50"/>
    </g>
   </g>
   <g id="text_7">
    <!-- 39 -->
    <g style="fill: #808080" transform="translate(288.085838 291.716892) scale(0.14 -0.14)">
     <defs>
      <path id="TimesNewRomanPSMT-39" d="M 338 -88 
L 338 28 
Q 744 34 1094 217 
Q 1444 400 1770 856 
Q 2097 1313 2225 1859 
Q 1734 1544 1338 1544 
Q 891 1544 572 1889 
Q 253 2234 253 2806 
Q 253 3363 572 3797 
Q 956 4325 1575 4325 
Q 2097 4325 2469 3894 
Q 2925 3359 2925 2575 
Q 2925 1869 2578 1258 
Q 2231 647 1613 244 
Q 1109 -88 516 -88 
L 338 -88 
z
M 2275 2091 
Q 2331 2497 2331 2741 
Q 2331 3044 2228 3395 
Q 2125 3747 1936 3934 
Q 1747 4122 1506 4122 
Q 1228 4122 1018 3872 
Q 809 3622 809 3128 
Q 809 2469 1088 2097 
Q 1291 1828 1588 1828 
Q 1731 1828 1928 1897 
Q 2125 1966 2275 2091 
z
" transform="scale(0.015625)"/>
     </defs>
     <use xlink:href="#TimesNewRomanPSMT-33"/>
     <use xlink:href="#TimesNewRomanPSMT-39" x="50"/>
    </g>
   </g>
   <g id="text_8">
    <!-- 58 -->
    <g style="fill: #808080" transform="translate(342.944444 222.365312) scale(0.14 -0.14)">
     <use xlink:href="#TimesNewRomanPSMT-35"/>
     <use xlink:href="#TimesNewRomanPSMT-38" x="50"/>
    </g>
   </g>
   <g id="text_9">
    <!-- 36 -->
    <g style="fill: #808080" transform="translate(301.466331 136.235125) scale(0.14 -0.14)">
     <use xlink:href="#TimesNewRomanPSMT-33"/>
     <use xlink:href="#TimesNewRomanPSMT-36" x="50"/>
    </g>
   </g>
   <g id="text_10">
    <!-- 75 -->
    <g style="fill: #808080" transform="translate(208.265859 114.962725) scale(0.14 -0.14)">
     <defs>
      <path id="TimesNewRomanPSMT-37" d="M 644 4238 
L 2916 4238 
L 2916 4119 
L 1503 -88 
L 1153 -88 
L 2419 3728 
L 1253 3728 
Q 900 3728 750 3644 
Q 488 3500 328 3200 
L 238 3234 
L 644 4238 
z
" transform="scale(0.015625)"/>
     </defs>
     <use xlink:href="#TimesNewRomanPSMT-37"/>
     <use xlink:href="#TimesNewRomanPSMT-35" x="50"/>
    </g>
   </g>
   <g id="text_11">
    <!-- 67 -->
    <g style="fill: #808080" transform="translate(133.524883 174.566664) scale(0.14 -0.14)">
     <use xlink:href="#TimesNewRomanPSMT-36"/>
     <use xlink:href="#TimesNewRomanPSMT-37" x="50"/>
    </g>
   </g>
   <g id="text_12">
    <!-- 25 -->
    <g style="fill: #808080" transform="translate(133.524883 270.163961) scale(0.14 -0.14)">
     <use xlink:href="#TimesNewRomanPSMT-32"/>
     <use xlink:href="#TimesNewRomanPSMT-35" x="50"/>
    </g>
   </g>
   <g id="text_13">
    <!-- 51 -->
    <g style="fill: #808080" transform="translate(208.265859 329.7679) scale(0.14 -0.14)">
     <use xlink:href="#TimesNewRomanPSMT-35"/>
     <use xlink:href="#TimesNewRomanPSMT-31" x="50"/>
    </g>
   </g>
   <g id="text_14">
    <!-- 49 -->
    <g style="fill: #808080" transform="translate(301.466331 308.4955) scale(0.14 -0.14)">
     <use xlink:href="#TimesNewRomanPSMT-34"/>
     <use xlink:href="#TimesNewRomanPSMT-39" x="50"/>
    </g>
   </g>
   <g id="text_15">
    <!-- 70 -->
    <g style="fill: #808080" transform="translate(364.405089 222.365312) scale(0.14 -0.14)">
     <use xlink:href="#TimesNewRomanPSMT-37"/>
     <use xlink:href="#TimesNewRomanPSMT-30" x="50"/>
    </g>
   </g>
   <g id="text_16">
    <!-- 43 -->
    <g style="fill: #808080" transform="translate(314.846825 119.456517) scale(0.14 -0.14)">
     <use xlink:href="#TimesNewRomanPSMT-34"/>
     <use xlink:href="#TimesNewRomanPSMT-33" x="50"/>
    </g>
   </g>
   <g id="text_17">
    <!-- 90 -->
    <g style="fill: #808080" transform="translate(203.490416 94.040143) scale(0.14 -0.14)">
     <use xlink:href="#TimesNewRomanPSMT-39"/>
     <use xlink:href="#TimesNewRomanPSMT-30" x="50"/>
    </g>
   </g>
   <g id="text_18">
    <!-- 80 -->
    <g style="fill: #808080" transform="translate(114.18951 165.255239) scale(0.14 -0.14)">
     <use xlink:href="#TimesNewRomanPSMT-38"/>
     <use xlink:href="#TimesNewRomanPSMT-30" x="50"/>
    </g>
   </g>
   <g id="text_19">
    <!-- 30 -->
    <g style="fill: #808080" transform="translate(114.18951 279.475386) scale(0.14 -0.14)">
     <use xlink:href="#TimesNewRomanPSMT-33"/>
     <use xlink:href="#TimesNewRomanPSMT-30" x="50"/>
    </g>
   </g>
   <g id="text_20">
    <!-- 61 -->
    <g style="fill: #808080" transform="translate(203.490416 350.690482) scale(0.14 -0.14)">
     <use xlink:href="#TimesNewRomanPSMT-36"/>
     <use xlink:href="#TimesNewRomanPSMT-31" x="50"/>
    </g>
   </g>
   <g id="text_21">
    <!-- 59 -->
    <g style="fill: #808080" transform="translate(314.846825 325.274108) scale(0.14 -0.14)">
     <use xlink:href="#TimesNewRomanPSMT-35"/>
     <use xlink:href="#TimesNewRomanPSMT-39" x="50"/>
    </g>
   </g>
   <g id="text_22">
    <!-- MMLU -->
    <g transform="translate(396.838664 228.723281) scale(0.14 -0.14)">
     <defs>
      <path id="TimesNewRomanPSMT-4d" d="M 2619 0 
L 981 3566 
L 981 734 
Q 981 344 1066 247 
Q 1181 116 1431 116 
L 1581 116 
L 1581 0 
L 106 0 
L 106 116 
L 256 116 
Q 525 116 638 278 
Q 706 378 706 734 
L 706 3503 
Q 706 3784 644 3909 
Q 600 4000 483 4061 
Q 366 4122 106 4122 
L 106 4238 
L 1306 4238 
L 2844 922 
L 4356 4238 
L 5556 4238 
L 5556 4122 
L 5409 4122 
Q 5138 4122 5025 3959 
Q 4956 3859 4956 3503 
L 4956 734 
Q 4956 344 5044 247 
Q 5159 116 5409 116 
L 5556 116 
L 5556 0 
L 3756 0 
L 3756 116 
L 3906 116 
Q 4178 116 4288 278 
Q 4356 378 4356 734 
L 4356 3566 
L 2722 0 
L 2619 0 
z
" transform="scale(0.015625)"/>
      <path id="TimesNewRomanPSMT-4c" d="M 3669 1172 
L 3772 1150 
L 3409 0 
L 128 0 
L 128 116 
L 288 116 
Q 556 116 672 291 
Q 738 391 738 753 
L 738 3488 
Q 738 3884 650 3984 
Q 528 4122 288 4122 
L 128 4122 
L 128 4238 
L 2047 4238 
L 2047 4122 
Q 1709 4125 1573 4059 
Q 1438 3994 1388 3894 
Q 1338 3794 1338 3416 
L 1338 753 
Q 1338 494 1388 397 
Q 1425 331 1503 300 
Q 1581 269 1991 269 
L 2300 269 
Q 2788 269 2984 341 
Q 3181 413 3343 595 
Q 3506 778 3669 1172 
z
" transform="scale(0.015625)"/>
      <path id="TimesNewRomanPSMT-55" d="M 3053 4122 
L 3053 4238 
L 4553 4238 
L 4553 4122 
L 4394 4122 
Q 4144 4122 4009 3913 
Q 3944 3816 3944 3463 
L 3944 1744 
Q 3944 1106 3817 754 
Q 3691 403 3320 151 
Q 2950 -100 2313 -100 
Q 1619 -100 1259 140 
Q 900 381 750 788 
Q 650 1066 650 1831 
L 650 3488 
Q 650 3878 542 4000 
Q 434 4122 194 4122 
L 34 4122 
L 34 4238 
L 1866 4238 
L 1866 4122 
L 1703 4122 
Q 1441 4122 1328 3956 
Q 1250 3844 1250 3488 
L 1250 1641 
Q 1250 1394 1295 1075 
Q 1341 756 1459 578 
Q 1578 400 1801 284 
Q 2025 169 2350 169 
Q 2766 169 3094 350 
Q 3422 531 3542 814 
Q 3663 1097 3663 1772 
L 3663 3488 
Q 3663 3884 3575 3984 
Q 3453 4122 3213 4122 
L 3053 4122 
z
" transform="scale(0.015625)"/>
     </defs>
     <use xlink:href="#TimesNewRomanPSMT-4d"/>
     <use xlink:href="#TimesNewRomanPSMT-4d" x="88.916016"/>
     <use xlink:href="#TimesNewRomanPSMT-4c" x="177.832031"/>
     <use xlink:href="#TimesNewRomanPSMT-55" x="238.916016"/>
    </g>
   </g>
   <g id="text_23">
    <!-- MMLU-pro -->
    <g transform="translate(317.842504 88.901548) scale(0.14 -0.14)">
     <defs>
      <path id="TimesNewRomanPSMT-2d" d="M 259 1672 
L 1875 1672 
L 1875 1200 
L 259 1200 
L 259 1672 
z
" transform="scale(0.015625)"/>
      <path id="TimesNewRomanPSMT-70" d="M -6 2578 
L 875 2934 
L 994 2934 
L 994 2266 
Q 1216 2644 1439 2795 
Q 1663 2947 1909 2947 
Q 2341 2947 2628 2609 
Q 2981 2197 2981 1534 
Q 2981 794 2556 309 
Q 2206 -88 1675 -88 
Q 1444 -88 1275 -22 
Q 1150 25 994 166 
L 994 -706 
Q 994 -1000 1030 -1079 
Q 1066 -1159 1155 -1206 
Q 1244 -1253 1478 -1253 
L 1478 -1369 
L -22 -1369 
L -22 -1253 
L 56 -1253 
Q 228 -1256 350 -1188 
Q 409 -1153 442 -1076 
Q 475 -1000 475 -688 
L 475 2019 
Q 475 2297 450 2372 
Q 425 2447 370 2484 
Q 316 2522 222 2522 
Q 147 2522 31 2478 
L -6 2578 
z
M 994 2081 
L 994 1013 
Q 994 666 1022 556 
Q 1066 375 1236 237 
Q 1406 100 1666 100 
Q 1978 100 2172 344 
Q 2425 663 2425 1241 
Q 2425 1897 2138 2250 
Q 1938 2494 1663 2494 
Q 1513 2494 1366 2419 
Q 1253 2363 994 2081 
z
" transform="scale(0.015625)"/>
      <path id="TimesNewRomanPSMT-72" d="M 1038 2947 
L 1038 2303 
Q 1397 2947 1775 2947 
Q 1947 2947 2059 2842 
Q 2172 2738 2172 2600 
Q 2172 2478 2090 2393 
Q 2009 2309 1897 2309 
Q 1788 2309 1652 2417 
Q 1516 2525 1450 2525 
Q 1394 2525 1328 2463 
Q 1188 2334 1038 2041 
L 1038 669 
Q 1038 431 1097 309 
Q 1138 225 1241 169 
Q 1344 113 1538 113 
L 1538 0 
L 72 0 
L 72 113 
Q 291 113 397 181 
Q 475 231 506 341 
Q 522 394 522 644 
L 522 1753 
Q 522 2253 501 2348 
Q 481 2444 426 2487 
Q 372 2531 291 2531 
Q 194 2531 72 2484 
L 41 2597 
L 906 2947 
L 1038 2947 
z
" transform="scale(0.015625)"/>
      <path id="TimesNewRomanPSMT-6f" d="M 1600 2947 
Q 2250 2947 2644 2453 
Q 2978 2031 2978 1484 
Q 2978 1100 2793 706 
Q 2609 313 2286 112 
Q 1963 -88 1566 -88 
Q 919 -88 538 428 
Q 216 863 216 1403 
Q 216 1797 411 2186 
Q 606 2575 925 2761 
Q 1244 2947 1600 2947 
z
M 1503 2744 
Q 1338 2744 1170 2645 
Q 1003 2547 900 2300 
Q 797 2053 797 1666 
Q 797 1041 1045 587 
Q 1294 134 1700 134 
Q 2003 134 2200 384 
Q 2397 634 2397 1244 
Q 2397 2006 2069 2444 
Q 1847 2744 1503 2744 
z
" transform="scale(0.015625)"/>
     </defs>
     <use xlink:href="#TimesNewRomanPSMT-4d"/>
     <use xlink:href="#TimesNewRomanPSMT-4d" x="88.916016"/>
     <use xlink:href="#TimesNewRomanPSMT-4c" x="177.832031"/>
     <use xlink:href="#TimesNewRomanPSMT-55" x="238.916016"/>
     <use xlink:href="#TimesNewRomanPSMT-2d" x="311.132812"/>
     <use xlink:href="#TimesNewRomanPSMT-70" x="344.433594"/>
     <use xlink:href="#TimesNewRomanPSMT-72" x="394.433594"/>
     <use xlink:href="#TimesNewRomanPSMT-6f" x="427.734375"/>
    </g>
   </g>
   <g id="text_24">
    <!-- ARC-C -->
    <g transform="translate(178.590692 54.368431) scale(0.14 -0.14)">
     <defs>
      <path id="TimesNewRomanPSMT-41" d="M 2928 1419 
L 1288 1419 
L 1000 750 
Q 894 503 894 381 
Q 894 284 986 211 
Q 1078 138 1384 116 
L 1384 0 
L 50 0 
L 50 116 
Q 316 163 394 238 
Q 553 388 747 847 
L 2238 4334 
L 2347 4334 
L 3822 809 
Q 4000 384 4145 257 
Q 4291 131 4550 116 
L 4550 0 
L 2878 0 
L 2878 116 
Q 3131 128 3220 200 
Q 3309 272 3309 375 
Q 3309 513 3184 809 
L 2928 1419 
z
M 2841 1650 
L 2122 3363 
L 1384 1650 
L 2841 1650 
z
" transform="scale(0.015625)"/>
      <path id="TimesNewRomanPSMT-52" d="M 4325 0 
L 3194 0 
L 1759 1981 
Q 1600 1975 1500 1975 
Q 1459 1975 1412 1976 
Q 1366 1978 1316 1981 
L 1316 750 
Q 1316 350 1403 253 
Q 1522 116 1759 116 
L 1925 116 
L 1925 0 
L 109 0 
L 109 116 
L 269 116 
Q 538 116 653 291 
Q 719 388 719 750 
L 719 3488 
Q 719 3888 631 3984 
Q 509 4122 269 4122 
L 109 4122 
L 109 4238 
L 1653 4238 
Q 2328 4238 2648 4139 
Q 2969 4041 3192 3777 
Q 3416 3513 3416 3147 
Q 3416 2756 3161 2468 
Q 2906 2181 2372 2063 
L 3247 847 
Q 3547 428 3762 290 
Q 3978 153 4325 116 
L 4325 0 
z
M 1316 2178 
Q 1375 2178 1419 2176 
Q 1463 2175 1491 2175 
Q 2097 2175 2405 2437 
Q 2713 2700 2713 3106 
Q 2713 3503 2464 3751 
Q 2216 4000 1806 4000 
Q 1625 4000 1316 3941 
L 1316 2178 
z
" transform="scale(0.015625)"/>
      <path id="TimesNewRomanPSMT-43" d="M 3853 4334 
L 3950 2894 
L 3853 2894 
Q 3659 3541 3300 3825 
Q 2941 4109 2438 4109 
Q 2016 4109 1675 3895 
Q 1334 3681 1139 3212 
Q 944 2744 944 2047 
Q 944 1472 1128 1050 
Q 1313 628 1683 403 
Q 2053 178 2528 178 
Q 2941 178 3256 354 
Q 3572 531 3950 1056 
L 4047 994 
Q 3728 428 3303 165 
Q 2878 -97 2294 -97 
Q 1241 -97 663 684 
Q 231 1266 231 2053 
Q 231 2688 515 3219 
Q 800 3750 1298 4042 
Q 1797 4334 2388 4334 
Q 2847 4334 3294 4109 
Q 3425 4041 3481 4041 
Q 3566 4041 3628 4100 
Q 3709 4184 3744 4334 
L 3853 4334 
z
" transform="scale(0.015625)"/>
     </defs>
     <use xlink:href="#TimesNewRomanPSMT-41"/>
     <use xlink:href="#TimesNewRomanPSMT-52" x="72.216797"/>
     <use xlink:href="#TimesNewRomanPSMT-43" x="138.916016"/>
     <use xlink:href="#TimesNewRomanPSMT-2d" x="205.615234"/>
     <use xlink:href="#TimesNewRomanPSMT-43" x="238.916016"/>
    </g>
   </g>
   <g id="text_25">
    <!-- GSM8K -->
    <g transform="translate(54.923876 151.128073) scale(0.14 -0.14)">
     <defs>
      <path id="TimesNewRomanPSMT-47" d="M 3928 4334 
L 4038 2997 
L 3928 2997 
Q 3763 3497 3500 3750 
Q 3122 4116 2528 4116 
Q 1719 4116 1297 3475 
Q 944 2934 944 2188 
Q 944 1581 1178 1081 
Q 1413 581 1792 348 
Q 2172 116 2572 116 
Q 2806 116 3025 175 
Q 3244 234 3447 350 
L 3447 1575 
Q 3447 1894 3398 1992 
Q 3350 2091 3248 2142 
Q 3147 2194 2891 2194 
L 2891 2313 
L 4531 2313 
L 4531 2194 
L 4453 2194 
Q 4209 2194 4119 2031 
Q 4056 1916 4056 1575 
L 4056 278 
Q 3697 84 3347 -6 
Q 2997 -97 2569 -97 
Q 1341 -97 703 691 
Q 225 1281 225 2053 
Q 225 2613 494 3125 
Q 813 3734 1369 4063 
Q 1834 4334 2469 4334 
Q 2700 4334 2889 4296 
Q 3078 4259 3425 4131 
Q 3600 4066 3659 4066 
Q 3719 4066 3761 4120 
Q 3803 4175 3813 4334 
L 3928 4334 
z
" transform="scale(0.015625)"/>
      <path id="TimesNewRomanPSMT-53" d="M 2934 4334 
L 2934 2869 
L 2819 2869 
Q 2763 3291 2617 3541 
Q 2472 3791 2203 3937 
Q 1934 4084 1647 4084 
Q 1322 4084 1109 3886 
Q 897 3688 897 3434 
Q 897 3241 1031 3081 
Q 1225 2847 1953 2456 
Q 2547 2138 2764 1967 
Q 2981 1797 3098 1565 
Q 3216 1334 3216 1081 
Q 3216 600 2842 251 
Q 2469 -97 1881 -97 
Q 1697 -97 1534 -69 
Q 1438 -53 1133 45 
Q 828 144 747 144 
Q 669 144 623 97 
Q 578 50 556 -97 
L 441 -97 
L 441 1356 
L 556 1356 
Q 638 900 775 673 
Q 913 447 1195 297 
Q 1478 147 1816 147 
Q 2206 147 2432 353 
Q 2659 559 2659 841 
Q 2659 997 2573 1156 
Q 2488 1316 2306 1453 
Q 2184 1547 1640 1851 
Q 1097 2156 867 2337 
Q 638 2519 519 2737 
Q 400 2956 400 3219 
Q 400 3675 750 4004 
Q 1100 4334 1641 4334 
Q 1978 4334 2356 4169 
Q 2531 4091 2603 4091 
Q 2684 4091 2736 4139 
Q 2788 4188 2819 4334 
L 2934 4334 
z
" transform="scale(0.015625)"/>
      <path id="TimesNewRomanPSMT-4b" d="M 1913 2350 
L 3475 797 
Q 3859 413 4131 273 
Q 4403 134 4675 116 
L 4675 0 
L 2659 0 
L 2659 116 
Q 2841 116 2920 177 
Q 3000 238 3000 313 
Q 3000 388 2970 447 
Q 2941 506 2775 669 
L 1313 2116 
L 1313 750 
Q 1313 428 1353 325 
Q 1384 247 1484 191 
Q 1619 116 1769 116 
L 1913 116 
L 1913 0 
L 106 0 
L 106 116 
L 256 116 
Q 519 116 638 269 
Q 713 369 713 750 
L 713 3488 
Q 713 3809 672 3916 
Q 641 3991 544 4047 
Q 406 4122 256 4122 
L 106 4122 
L 106 4238 
L 1913 4238 
L 1913 4122 
L 1769 4122 
Q 1622 4122 1484 4050 
Q 1388 4000 1350 3900 
Q 1313 3800 1313 3488 
L 1313 2191 
Q 1375 2250 1741 2588 
Q 2669 3438 2863 3722 
Q 2947 3847 2947 3941 
Q 2947 4013 2881 4067 
Q 2816 4122 2659 4122 
L 2563 4122 
L 2563 4238 
L 4119 4238 
L 4119 4122 
Q 3981 4119 3868 4084 
Q 3756 4050 3593 3951 
Q 3431 3853 3194 3634 
Q 3125 3572 2559 2994 
L 1913 2350 
z
" transform="scale(0.015625)"/>
     </defs>
     <use xlink:href="#TimesNewRomanPSMT-47"/>
     <use xlink:href="#TimesNewRomanPSMT-53" x="72.216797"/>
     <use xlink:href="#TimesNewRomanPSMT-4d" x="127.832031"/>
     <use xlink:href="#TimesNewRomanPSMT-38" x="216.748047"/>
     <use xlink:href="#TimesNewRomanPSMT-4b" x="266.748047"/>
    </g>
   </g>
   <g id="text_26">
    <!-- Math -->
    <g transform="translate(63.875126 306.318489) scale(0.14 -0.14)">
     <defs>
      <path id="TimesNewRomanPSMT-61" d="M 1822 413 
Q 1381 72 1269 19 
Q 1100 -59 909 -59 
Q 613 -59 420 144 
Q 228 347 228 678 
Q 228 888 322 1041 
Q 450 1253 767 1440 
Q 1084 1628 1822 1897 
L 1822 2009 
Q 1822 2438 1686 2597 
Q 1550 2756 1291 2756 
Q 1094 2756 978 2650 
Q 859 2544 859 2406 
L 866 2225 
Q 866 2081 792 2003 
Q 719 1925 600 1925 
Q 484 1925 411 2006 
Q 338 2088 338 2228 
Q 338 2497 613 2722 
Q 888 2947 1384 2947 
Q 1766 2947 2009 2819 
Q 2194 2722 2281 2516 
Q 2338 2381 2338 1966 
L 2338 994 
Q 2338 584 2353 492 
Q 2369 400 2405 369 
Q 2441 338 2488 338 
Q 2538 338 2575 359 
Q 2641 400 2828 588 
L 2828 413 
Q 2478 -56 2159 -56 
Q 2006 -56 1915 50 
Q 1825 156 1822 413 
z
M 1822 616 
L 1822 1706 
Q 1350 1519 1213 1441 
Q 966 1303 859 1153 
Q 753 1003 753 825 
Q 753 600 887 451 
Q 1022 303 1197 303 
Q 1434 303 1822 616 
z
" transform="scale(0.015625)"/>
      <path id="TimesNewRomanPSMT-74" d="M 1031 3803 
L 1031 2863 
L 1700 2863 
L 1700 2644 
L 1031 2644 
L 1031 788 
Q 1031 509 1111 412 
Q 1191 316 1316 316 
Q 1419 316 1516 380 
Q 1613 444 1666 569 
L 1788 569 
Q 1678 263 1478 108 
Q 1278 -47 1066 -47 
Q 922 -47 784 33 
Q 647 113 581 261 
Q 516 409 516 719 
L 516 2644 
L 63 2644 
L 63 2747 
Q 234 2816 414 2980 
Q 594 3144 734 3369 
Q 806 3488 934 3803 
L 1031 3803 
z
" transform="scale(0.015625)"/>
      <path id="TimesNewRomanPSMT-68" d="M 1041 4444 
L 1041 2350 
Q 1388 2731 1591 2839 
Q 1794 2947 1997 2947 
Q 2241 2947 2416 2812 
Q 2591 2678 2675 2391 
Q 2734 2191 2734 1659 
L 2734 647 
Q 2734 375 2778 275 
Q 2809 200 2884 156 
Q 2959 113 3159 113 
L 3159 0 
L 1753 0 
L 1753 113 
L 1819 113 
Q 2019 113 2097 173 
Q 2175 234 2206 353 
Q 2216 403 2216 647 
L 2216 1659 
Q 2216 2128 2167 2275 
Q 2119 2422 2012 2495 
Q 1906 2569 1756 2569 
Q 1603 2569 1437 2487 
Q 1272 2406 1041 2159 
L 1041 647 
Q 1041 353 1073 281 
Q 1106 209 1195 161 
Q 1284 113 1503 113 
L 1503 0 
L 84 0 
L 84 113 
Q 275 113 384 172 
Q 447 203 484 290 
Q 522 378 522 647 
L 522 3238 
Q 522 3728 498 3840 
Q 475 3953 426 3993 
Q 378 4034 297 4034 
Q 231 4034 84 3984 
L 41 4094 
L 897 4444 
L 1041 4444 
z
" transform="scale(0.015625)"/>
     </defs>
     <use xlink:href="#TimesNewRomanPSMT-4d"/>
     <use xlink:href="#TimesNewRomanPSMT-61" x="88.916016"/>
     <use xlink:href="#TimesNewRomanPSMT-74" x="133.300781"/>
     <use xlink:href="#TimesNewRomanPSMT-68" x="161.083984"/>
    </g>
   </g>
   <g id="text_27">
    <!-- HumanEval -->
    <g transform="translate(166.549598 403.078131) scale(0.14 -0.14)">
     <defs>
      <path id="TimesNewRomanPSMT-48" d="M 1316 2272 
L 3284 2272 
L 3284 3484 
Q 3284 3809 3244 3913 
Q 3213 3991 3113 4047 
Q 2978 4122 2828 4122 
L 2678 4122 
L 2678 4238 
L 4491 4238 
L 4491 4122 
L 4341 4122 
Q 4191 4122 4056 4050 
Q 3956 4000 3920 3898 
Q 3884 3797 3884 3484 
L 3884 750 
Q 3884 428 3925 325 
Q 3956 247 4053 191 
Q 4191 116 4341 116 
L 4491 116 
L 4491 0 
L 2678 0 
L 2678 116 
L 2828 116 
Q 3088 116 3206 269 
Q 3284 369 3284 750 
L 3284 2041 
L 1316 2041 
L 1316 750 
Q 1316 428 1356 325 
Q 1388 247 1488 191 
Q 1622 116 1772 116 
L 1925 116 
L 1925 0 
L 109 0 
L 109 116 
L 259 116 
Q 522 116 641 269 
Q 716 369 716 750 
L 716 3484 
Q 716 3809 675 3913 
Q 644 3991 547 4047 
Q 409 4122 259 4122 
L 109 4122 
L 109 4238 
L 1925 4238 
L 1925 4122 
L 1772 4122 
Q 1622 4122 1488 4050 
Q 1391 4000 1353 3898 
Q 1316 3797 1316 3484 
L 1316 2272 
z
" transform="scale(0.015625)"/>
      <path id="TimesNewRomanPSMT-75" d="M 2709 2863 
L 2709 1128 
Q 2709 631 2732 520 
Q 2756 409 2807 365 
Q 2859 322 2928 322 
Q 3025 322 3147 375 
L 3191 266 
L 2334 -88 
L 2194 -88 
L 2194 519 
Q 1825 119 1631 15 
Q 1438 -88 1222 -88 
Q 981 -88 804 51 
Q 628 191 559 409 
Q 491 628 491 1028 
L 491 2306 
Q 491 2509 447 2587 
Q 403 2666 317 2708 
Q 231 2750 6 2747 
L 6 2863 
L 1009 2863 
L 1009 947 
Q 1009 547 1148 422 
Q 1288 297 1484 297 
Q 1619 297 1789 381 
Q 1959 466 2194 703 
L 2194 2325 
Q 2194 2569 2105 2655 
Q 2016 2741 1734 2747 
L 1734 2863 
L 2709 2863 
z
" transform="scale(0.015625)"/>
      <path id="TimesNewRomanPSMT-6d" d="M 1050 2338 
Q 1363 2650 1419 2697 
Q 1559 2816 1721 2881 
Q 1884 2947 2044 2947 
Q 2313 2947 2506 2790 
Q 2700 2634 2766 2338 
Q 3088 2713 3309 2830 
Q 3531 2947 3766 2947 
Q 3994 2947 4170 2830 
Q 4347 2713 4450 2447 
Q 4519 2266 4519 1878 
L 4519 647 
Q 4519 378 4559 278 
Q 4591 209 4675 161 
Q 4759 113 4950 113 
L 4950 0 
L 3538 0 
L 3538 113 
L 3597 113 
Q 3781 113 3884 184 
Q 3956 234 3988 344 
Q 4000 397 4000 647 
L 4000 1878 
Q 4000 2228 3916 2372 
Q 3794 2572 3525 2572 
Q 3359 2572 3192 2489 
Q 3025 2406 2788 2181 
L 2781 2147 
L 2788 2013 
L 2788 647 
Q 2788 353 2820 281 
Q 2853 209 2943 161 
Q 3034 113 3253 113 
L 3253 0 
L 1806 0 
L 1806 113 
Q 2044 113 2133 169 
Q 2222 225 2256 338 
Q 2272 391 2272 647 
L 2272 1878 
Q 2272 2228 2169 2381 
Q 2031 2581 1784 2581 
Q 1616 2581 1450 2491 
Q 1191 2353 1050 2181 
L 1050 647 
Q 1050 366 1089 281 
Q 1128 197 1204 155 
Q 1281 113 1516 113 
L 1516 0 
L 100 0 
L 100 113 
Q 297 113 375 155 
Q 453 197 493 289 
Q 534 381 534 647 
L 534 1741 
Q 534 2213 506 2350 
Q 484 2453 437 2492 
Q 391 2531 309 2531 
Q 222 2531 100 2484 
L 53 2597 
L 916 2947 
L 1050 2947 
L 1050 2338 
z
" transform="scale(0.015625)"/>
      <path id="TimesNewRomanPSMT-6e" d="M 1034 2341 
Q 1538 2947 1994 2947 
Q 2228 2947 2397 2830 
Q 2566 2713 2666 2444 
Q 2734 2256 2734 1869 
L 2734 647 
Q 2734 375 2778 278 
Q 2813 200 2889 156 
Q 2966 113 3172 113 
L 3172 0 
L 1756 0 
L 1756 113 
L 1816 113 
Q 2016 113 2095 173 
Q 2175 234 2206 353 
Q 2219 400 2219 647 
L 2219 1819 
Q 2219 2209 2117 2386 
Q 2016 2563 1775 2563 
Q 1403 2563 1034 2156 
L 1034 647 
Q 1034 356 1069 288 
Q 1113 197 1189 155 
Q 1266 113 1500 113 
L 1500 0 
L 84 0 
L 84 113 
L 147 113 
Q 366 113 442 223 
Q 519 334 519 647 
L 519 1709 
Q 519 2225 495 2337 
Q 472 2450 423 2490 
Q 375 2531 294 2531 
Q 206 2531 84 2484 
L 38 2597 
L 900 2947 
L 1034 2947 
L 1034 2341 
z
" transform="scale(0.015625)"/>
      <path id="TimesNewRomanPSMT-45" d="M 1338 4006 
L 1338 2331 
L 2269 2331 
Q 2631 2331 2753 2441 
Q 2916 2584 2934 2947 
L 3050 2947 
L 3050 1472 
L 2934 1472 
Q 2891 1781 2847 1869 
Q 2791 1978 2662 2040 
Q 2534 2103 2269 2103 
L 1338 2103 
L 1338 706 
Q 1338 425 1363 364 
Q 1388 303 1450 267 
Q 1513 231 1688 231 
L 2406 231 
Q 2766 231 2928 281 
Q 3091 331 3241 478 
Q 3434 672 3638 1063 
L 3763 1063 
L 3397 0 
L 131 0 
L 131 116 
L 281 116 
Q 431 116 566 188 
Q 666 238 702 338 
Q 738 438 738 747 
L 738 3500 
Q 738 3903 656 3997 
Q 544 4122 281 4122 
L 131 4122 
L 131 4238 
L 3397 4238 
L 3444 3309 
L 3322 3309 
Q 3256 3644 3176 3769 
Q 3097 3894 2941 3959 
Q 2816 4006 2500 4006 
L 1338 4006 
z
" transform="scale(0.015625)"/>
      <path id="TimesNewRomanPSMT-76" d="M 53 2863 
L 1400 2863 
L 1400 2747 
L 1313 2747 
Q 1191 2747 1127 2687 
Q 1063 2628 1063 2528 
Q 1063 2419 1128 2269 
L 1794 688 
L 2463 2328 
Q 2534 2503 2534 2594 
Q 2534 2638 2509 2666 
Q 2475 2713 2422 2730 
Q 2369 2747 2206 2747 
L 2206 2863 
L 3141 2863 
L 3141 2747 
Q 2978 2734 2916 2681 
Q 2806 2588 2719 2369 
L 1703 -88 
L 1575 -88 
L 553 2328 
Q 484 2497 421 2570 
Q 359 2644 263 2694 
Q 209 2722 53 2747 
L 53 2863 
z
" transform="scale(0.015625)"/>
      <path id="TimesNewRomanPSMT-6c" d="M 1184 4444 
L 1184 647 
Q 1184 378 1223 290 
Q 1263 203 1344 158 
Q 1425 113 1647 113 
L 1647 0 
L 244 0 
L 244 113 
Q 441 113 512 153 
Q 584 194 625 287 
Q 666 381 666 647 
L 666 3247 
Q 666 3731 644 3842 
Q 622 3953 573 3993 
Q 525 4034 450 4034 
Q 369 4034 244 3984 
L 191 4094 
L 1044 4444 
L 1184 4444 
z
" transform="scale(0.015625)"/>
     </defs>
     <use xlink:href="#TimesNewRomanPSMT-48"/>
     <use xlink:href="#TimesNewRomanPSMT-75" x="72.216797"/>
     <use xlink:href="#TimesNewRomanPSMT-6d" x="122.216797"/>
     <use xlink:href="#TimesNewRomanPSMT-61" x="200"/>
     <use xlink:href="#TimesNewRomanPSMT-6e" x="244.384766"/>
     <use xlink:href="#TimesNewRomanPSMT-45" x="294.384766"/>
     <use xlink:href="#TimesNewRomanPSMT-76" x="355.46875"/>
     <use xlink:href="#TimesNewRomanPSMT-61" x="405.46875"/>
     <use xlink:href="#TimesNewRomanPSMT-6c" x="449.853516"/>
    </g>
   </g>
   <g id="text_28">
    <!-- MBPP -->
    <g transform="translate(332.604848 368.545015) scale(0.14 -0.14)">
     <defs>
      <path id="TimesNewRomanPSMT-42" d="M 2956 2163 
Q 3397 2069 3616 1863 
Q 3919 1575 3919 1159 
Q 3919 844 3719 555 
Q 3519 266 3170 133 
Q 2822 0 2106 0 
L 106 0 
L 106 116 
L 266 116 
Q 531 116 647 284 
Q 719 394 719 750 
L 719 3488 
Q 719 3881 628 3984 
Q 506 4122 266 4122 
L 106 4122 
L 106 4238 
L 1938 4238 
Q 2450 4238 2759 4163 
Q 3228 4050 3475 3764 
Q 3722 3478 3722 3106 
Q 3722 2788 3528 2536 
Q 3334 2284 2956 2163 
z
M 1319 2331 
Q 1434 2309 1582 2298 
Q 1731 2288 1909 2288 
Q 2366 2288 2595 2386 
Q 2825 2484 2947 2687 
Q 3069 2891 3069 3131 
Q 3069 3503 2766 3765 
Q 2463 4028 1881 4028 
Q 1569 4028 1319 3959 
L 1319 2331 
z
M 1319 306 
Q 1681 222 2034 222 
Q 2600 222 2897 476 
Q 3194 731 3194 1106 
Q 3194 1353 3059 1581 
Q 2925 1809 2622 1940 
Q 2319 2072 1872 2072 
Q 1678 2072 1540 2065 
Q 1403 2059 1319 2044 
L 1319 306 
z
" transform="scale(0.015625)"/>
      <path id="TimesNewRomanPSMT-50" d="M 1313 1984 
L 1313 750 
Q 1313 350 1400 253 
Q 1519 116 1759 116 
L 1922 116 
L 1922 0 
L 106 0 
L 106 116 
L 266 116 
Q 534 116 650 291 
Q 713 388 713 750 
L 713 3488 
Q 713 3888 628 3984 
Q 506 4122 266 4122 
L 106 4122 
L 106 4238 
L 1659 4238 
Q 2228 4238 2556 4120 
Q 2884 4003 3109 3725 
Q 3334 3447 3334 3066 
Q 3334 2547 2992 2222 
Q 2650 1897 2025 1897 
Q 1872 1897 1694 1919 
Q 1516 1941 1313 1984 
z
M 1313 2163 
Q 1478 2131 1606 2115 
Q 1734 2100 1825 2100 
Q 2150 2100 2386 2351 
Q 2622 2603 2622 3003 
Q 2622 3278 2509 3514 
Q 2397 3750 2190 3867 
Q 1984 3984 1722 3984 
Q 1563 3984 1313 3925 
L 1313 2163 
z
" transform="scale(0.015625)"/>
     </defs>
     <use xlink:href="#TimesNewRomanPSMT-4d"/>
     <use xlink:href="#TimesNewRomanPSMT-42" x="88.916016"/>
     <use xlink:href="#TimesNewRomanPSMT-50" x="155.615234"/>
     <use xlink:href="#TimesNewRomanPSMT-50" x="211.230469"/>
    </g>
   </g>
   <g id="patch_6">
    <path d="M 461.312658 216.276282 
Q 461.401218 219.817956 461.433883 221.124261 
" style="fill: none; stroke: #000000; stroke-width: 2; stroke-linecap: round"/>
    <path d="M 463.333268 217.075516 
L 461.433883 221.124261 
L 459.334518 217.175506 
" style="fill: none; stroke: #000000; stroke-width: 2; stroke-linecap: round"/>
   </g>
   <g id="patch_7">
    <path d="M 199.34007 7.360114 
Q 195.867486 8.061871 194.586664 8.320706 
" style="fill: none; stroke: #000000; stroke-width: 2; stroke-linecap: round"/>
    <path d="M 198.903569 9.488754 
L 194.586664 8.320706 
L 198.111246 5.568011 
" style="fill: none; stroke: #000000; stroke-width: 2; stroke-linecap: round"/>
   </g>
   <g id="text_29">
    <!-- General Tasks -->
    <g transform="translate(344.705238 21.160169) rotate(-321.428571) scale(0.16 -0.16)">
     <defs>
      <path id="TimesNewRomanPSMT-65" d="M 681 1784 
Q 678 1147 991 784 
Q 1303 422 1725 422 
Q 2006 422 2214 576 
Q 2422 731 2563 1106 
L 2659 1044 
Q 2594 616 2278 264 
Q 1963 -88 1488 -88 
Q 972 -88 605 314 
Q 238 716 238 1394 
Q 238 2128 614 2539 
Q 991 2950 1559 2950 
Q 2041 2950 2350 2633 
Q 2659 2316 2659 1784 
L 681 1784 
z
M 681 1966 
L 2006 1966 
Q 1991 2241 1941 2353 
Q 1863 2528 1708 2628 
Q 1553 2728 1384 2728 
Q 1125 2728 920 2526 
Q 716 2325 681 1966 
z
" transform="scale(0.015625)"/>
      <path id="TimesNewRomanPSMT-20" transform="scale(0.015625)"/>
      <path id="TimesNewRomanPSMT-54" d="M 3703 4238 
L 3750 3244 
L 3631 3244 
Q 3597 3506 3538 3619 
Q 3441 3800 3280 3886 
Q 3119 3972 2856 3972 
L 2259 3972 
L 2259 734 
Q 2259 344 2344 247 
Q 2463 116 2709 116 
L 2856 116 
L 2856 0 
L 1059 0 
L 1059 116 
L 1209 116 
Q 1478 116 1591 278 
Q 1659 378 1659 734 
L 1659 3972 
L 1150 3972 
Q 853 3972 728 3928 
Q 566 3869 450 3700 
Q 334 3531 313 3244 
L 194 3244 
L 244 4238 
L 3703 4238 
z
" transform="scale(0.015625)"/>
      <path id="TimesNewRomanPSMT-73" d="M 2050 2947 
L 2050 1972 
L 1947 1972 
Q 1828 2431 1642 2597 
Q 1456 2763 1169 2763 
Q 950 2763 815 2647 
Q 681 2531 681 2391 
Q 681 2216 781 2091 
Q 878 1963 1175 1819 
L 1631 1597 
Q 2266 1288 2266 781 
Q 2266 391 1970 151 
Q 1675 -88 1309 -88 
Q 1047 -88 709 6 
Q 606 38 541 38 
Q 469 38 428 -44 
L 325 -44 
L 325 978 
L 428 978 
Q 516 541 762 319 
Q 1009 97 1316 97 
Q 1531 97 1667 223 
Q 1803 350 1803 528 
Q 1803 744 1651 891 
Q 1500 1038 1047 1263 
Q 594 1488 453 1669 
Q 313 1847 313 2119 
Q 313 2472 555 2709 
Q 797 2947 1181 2947 
Q 1350 2947 1591 2875 
Q 1750 2828 1803 2828 
Q 1853 2828 1881 2850 
Q 1909 2872 1947 2947 
L 2050 2947 
z
" transform="scale(0.015625)"/>
      <path id="TimesNewRomanPSMT-6b" d="M 1047 4444 
L 1047 1597 
L 1775 2259 
Q 2006 2472 2044 2528 
Q 2069 2566 2069 2603 
Q 2069 2666 2017 2711 
Q 1966 2756 1847 2763 
L 1847 2863 
L 3091 2863 
L 3091 2763 
Q 2834 2756 2664 2684 
Q 2494 2613 2291 2428 
L 1556 1750 
L 2291 822 
Q 2597 438 2703 334 
Q 2853 188 2966 144 
Q 3044 113 3238 113 
L 3238 0 
L 1847 0 
L 1847 113 
Q 1966 116 2008 148 
Q 2050 181 2050 241 
Q 2050 313 1925 472 
L 1047 1594 
L 1047 644 
Q 1047 366 1086 278 
Q 1125 191 1197 153 
Q 1269 116 1509 113 
L 1509 0 
L 53 0 
L 53 113 
Q 272 113 381 166 
Q 447 200 481 272 
Q 528 375 528 628 
L 528 3234 
Q 528 3731 506 3842 
Q 484 3953 434 3995 
Q 384 4038 303 4038 
Q 238 4038 106 3984 
L 53 4094 
L 903 4444 
L 1047 4444 
z
" transform="scale(0.015625)"/>
     </defs>
     <use xlink:href="#TimesNewRomanPSMT-47"/>
     <use xlink:href="#TimesNewRomanPSMT-65" x="72.216797"/>
     <use xlink:href="#TimesNewRomanPSMT-6e" x="116.601562"/>
     <use xlink:href="#TimesNewRomanPSMT-65" x="166.601562"/>
     <use xlink:href="#TimesNewRomanPSMT-72" x="210.986328"/>
     <use xlink:href="#TimesNewRomanPSMT-61" x="244.287109"/>
     <use xlink:href="#TimesNewRomanPSMT-6c" x="288.671875"/>
     <use xlink:href="#TimesNewRomanPSMT-20" x="316.455078"/>
     <use xlink:href="#TimesNewRomanPSMT-54" x="339.705078"/>
     <use xlink:href="#TimesNewRomanPSMT-61" x="393.789062"/>
     <use xlink:href="#TimesNewRomanPSMT-73" x="438.173828"/>
     <use xlink:href="#TimesNewRomanPSMT-6b" x="477.089844"/>
     <use xlink:href="#TimesNewRomanPSMT-73" x="527.089844"/>
    </g>
   </g>
   <g id="patch_8">
    <path d="M 36.244311 137.424642 
Q 37.701196 134.195278 38.238551 133.004166 
" style="fill: none; stroke: #000000; stroke-width: 2; stroke-linecap: round"/>
    <path d="M 34.770579 135.827846 
L 38.238551 133.004166 
L 38.416712 137.472752 
" style="fill: none; stroke: #000000; stroke-width: 2; stroke-linecap: round"/>
   </g>
   <g id="patch_9">
    <path d="M 36.244311 313.295358 
Q 37.701196 316.524722 38.238551 317.715834 
" style="fill: none; stroke: #000000; stroke-width: 2; stroke-linecap: round"/>
    <path d="M 38.416712 313.247248 
L 38.238551 317.715834 
L 34.770579 314.892154 
" style="fill: none; stroke: #000000; stroke-width: 2; stroke-linecap: round"/>
   </g>
   <g id="text_30">
    <!-- Mathematics -->
    <g transform="translate(14.71 266.6825) rotate(-90) scale(0.16 -0.16)">
     <defs>
      <path id="TimesNewRomanPSMT-69" d="M 928 4444 
Q 1059 4444 1151 4351 
Q 1244 4259 1244 4128 
Q 1244 3997 1151 3903 
Q 1059 3809 928 3809 
Q 797 3809 703 3903 
Q 609 3997 609 4128 
Q 609 4259 701 4351 
Q 794 4444 928 4444 
z
M 1188 2947 
L 1188 647 
Q 1188 378 1227 289 
Q 1266 200 1342 156 
Q 1419 113 1622 113 
L 1622 0 
L 231 0 
L 231 113 
Q 441 113 512 153 
Q 584 194 626 287 
Q 669 381 669 647 
L 669 1750 
Q 669 2216 641 2353 
Q 619 2453 572 2492 
Q 525 2531 444 2531 
Q 356 2531 231 2484 
L 188 2597 
L 1050 2947 
L 1188 2947 
z
" transform="scale(0.015625)"/>
      <path id="TimesNewRomanPSMT-63" d="M 2631 1088 
Q 2516 522 2178 217 
Q 1841 -88 1431 -88 
Q 944 -88 581 321 
Q 219 731 219 1428 
Q 219 2103 620 2525 
Q 1022 2947 1584 2947 
Q 2006 2947 2278 2723 
Q 2550 2500 2550 2259 
Q 2550 2141 2473 2067 
Q 2397 1994 2259 1994 
Q 2075 1994 1981 2113 
Q 1928 2178 1911 2362 
Q 1894 2547 1784 2644 
Q 1675 2738 1481 2738 
Q 1169 2738 978 2506 
Q 725 2200 725 1697 
Q 725 1184 976 792 
Q 1228 400 1656 400 
Q 1963 400 2206 609 
Q 2378 753 2541 1131 
L 2631 1088 
z
" transform="scale(0.015625)"/>
     </defs>
     <use xlink:href="#TimesNewRomanPSMT-4d"/>
     <use xlink:href="#TimesNewRomanPSMT-61" x="88.916016"/>
     <use xlink:href="#TimesNewRomanPSMT-74" x="133.300781"/>
     <use xlink:href="#TimesNewRomanPSMT-68" x="161.083984"/>
     <use xlink:href="#TimesNewRomanPSMT-65" x="211.083984"/>
     <use xlink:href="#TimesNewRomanPSMT-6d" x="255.46875"/>
     <use xlink:href="#TimesNewRomanPSMT-61" x="333.251953"/>
     <use xlink:href="#TimesNewRomanPSMT-74" x="377.636719"/>
     <use xlink:href="#TimesNewRomanPSMT-69" x="405.419922"/>
     <use xlink:href="#TimesNewRomanPSMT-63" x="433.203125"/>
     <use xlink:href="#TimesNewRomanPSMT-73" x="477.587891"/>
    </g>
   </g>
   <g id="patch_10">
    <path d="M 199.34007 443.359886 
Q 195.867486 442.658129 194.586664 442.399294 
" style="fill: none; stroke: #000000; stroke-width: 2; stroke-linecap: round"/>
    <path d="M 198.111246 445.151989 
L 194.586664 442.399294 
L 198.903569 441.231246 
" style="fill: none; stroke: #000000; stroke-width: 2; stroke-linecap: round"/>
   </g>
   <g id="patch_11">
    <path d="M 370.801341 404.22497 
Q 373.625549 402.086011 374.667226 401.297081 
" style="fill: none; stroke: #000000; stroke-width: 2; stroke-linecap: round"/>
    <path d="M 370.271032 402.117741 
L 374.667226 401.297081 
L 372.686037 405.306432 
" style="fill: none; stroke: #000000; stroke-width: 2; stroke-linecap: round"/>
   </g>
   <g id="text_31">
    <!-- Code -->
    <g transform="translate(275.109075 456.039409) rotate(-12.857143) scale(0.16 -0.16)">
     <defs>
      <path id="TimesNewRomanPSMT-64" d="M 2222 322 
Q 2013 103 1813 7 
Q 1613 -88 1381 -88 
Q 913 -88 563 304 
Q 213 697 213 1313 
Q 213 1928 600 2439 
Q 988 2950 1597 2950 
Q 1975 2950 2222 2709 
L 2222 3238 
Q 2222 3728 2198 3840 
Q 2175 3953 2125 3993 
Q 2075 4034 2000 4034 
Q 1919 4034 1784 3984 
L 1744 4094 
L 2597 4444 
L 2738 4444 
L 2738 1134 
Q 2738 631 2761 520 
Q 2784 409 2836 365 
Q 2888 322 2956 322 
Q 3041 322 3181 375 
L 3216 266 
L 2366 -88 
L 2222 -88 
L 2222 322 
z
M 2222 541 
L 2222 2016 
Q 2203 2228 2109 2403 
Q 2016 2578 1861 2667 
Q 1706 2756 1559 2756 
Q 1284 2756 1069 2509 
Q 784 2184 784 1559 
Q 784 928 1059 592 
Q 1334 256 1672 256 
Q 1956 256 2222 541 
z
" transform="scale(0.015625)"/>
     </defs>
     <use xlink:href="#TimesNewRomanPSMT-43"/>
     <use xlink:href="#TimesNewRomanPSMT-6f" x="66.699219"/>
     <use xlink:href="#TimesNewRomanPSMT-64" x="116.699219"/>
     <use xlink:href="#TimesNewRomanPSMT-65" x="166.699219"/>
    </g>
   </g>
   <g id="legend_1">
    <g id="line2d_17">
     <path d="M 378.435798 260.979937 
L 392.435798 260.979937 
L 406.435798 260.979937 
" style="fill: none; stroke: #ff0000; stroke-width: 2; stroke-linecap: square"/>
    </g>
    <g id="text_32">
     <!-- LLaDA 8B Instruct -->
     <g transform="translate(417.635798 265.879937) scale(0.14 -0.14)">
      <defs>
       <path id="TimesNewRomanPSMT-44" d="M 109 0 
L 109 116 
L 269 116 
Q 538 116 650 288 
Q 719 391 719 750 
L 719 3488 
Q 719 3884 631 3984 
Q 509 4122 269 4122 
L 109 4122 
L 109 4238 
L 1834 4238 
Q 2784 4238 3279 4022 
Q 3775 3806 4076 3303 
Q 4378 2800 4378 2141 
Q 4378 1256 3841 663 
Q 3238 0 2003 0 
L 109 0 
z
M 1319 306 
Q 1716 219 1984 219 
Q 2709 219 3187 728 
Q 3666 1238 3666 2109 
Q 3666 2988 3187 3494 
Q 2709 4000 1959 4000 
Q 1678 4000 1319 3909 
L 1319 306 
z
" transform="scale(0.015625)"/>
       <path id="TimesNewRomanPSMT-49" d="M 1975 116 
L 1975 0 
L 159 0 
L 159 116 
L 309 116 
Q 572 116 691 269 
Q 766 369 766 750 
L 766 3488 
Q 766 3809 725 3913 
Q 694 3991 597 4047 
Q 459 4122 309 4122 
L 159 4122 
L 159 4238 
L 1975 4238 
L 1975 4122 
L 1822 4122 
Q 1563 4122 1444 3969 
Q 1366 3869 1366 3488 
L 1366 750 
Q 1366 428 1406 325 
Q 1438 247 1538 191 
Q 1672 116 1822 116 
L 1975 116 
z
" transform="scale(0.015625)"/>
      </defs>
      <use xlink:href="#TimesNewRomanPSMT-4c"/>
      <use xlink:href="#TimesNewRomanPSMT-4c" x="61.083984"/>
      <use xlink:href="#TimesNewRomanPSMT-61" x="122.167969"/>
      <use xlink:href="#TimesNewRomanPSMT-44" x="166.552734"/>
      <use xlink:href="#TimesNewRomanPSMT-41" x="238.769531"/>
      <use xlink:href="#TimesNewRomanPSMT-20" x="305.486328"/>
      <use xlink:href="#TimesNewRomanPSMT-38" x="330.486328"/>
      <use xlink:href="#TimesNewRomanPSMT-42" x="380.486328"/>
      <use xlink:href="#TimesNewRomanPSMT-20" x="447.185547"/>
      <use xlink:href="#TimesNewRomanPSMT-49" x="472.185547"/>
      <use xlink:href="#TimesNewRomanPSMT-6e" x="505.486328"/>
      <use xlink:href="#TimesNewRomanPSMT-73" x="555.486328"/>
      <use xlink:href="#TimesNewRomanPSMT-74" x="594.402344"/>
      <use xlink:href="#TimesNewRomanPSMT-72" x="622.185547"/>
      <use xlink:href="#TimesNewRomanPSMT-75" x="655.486328"/>
      <use xlink:href="#TimesNewRomanPSMT-63" x="705.486328"/>
      <use xlink:href="#TimesNewRomanPSMT-74" x="749.871094"/>
     </g>
    </g>
    <g id="line2d_18">
     <path d="M 378.435798 280.774625 
L 392.435798 280.774625 
L 406.435798 280.774625 
" style="fill: none; stroke: #9400d3; stroke-width: 2; stroke-linecap: square"/>
    </g>
    <g id="text_33">
     <!-- LLaMA 3 8B Instruct -->
     <g transform="translate(417.635798 285.674625) scale(0.14 -0.14)">
      <use xlink:href="#TimesNewRomanPSMT-4c"/>
      <use xlink:href="#TimesNewRomanPSMT-4c" x="61.083984"/>
      <use xlink:href="#TimesNewRomanPSMT-61" x="122.167969"/>
      <use xlink:href="#TimesNewRomanPSMT-4d" x="166.552734"/>
      <use xlink:href="#TimesNewRomanPSMT-41" x="255.46875"/>
      <use xlink:href="#TimesNewRomanPSMT-20" x="322.185547"/>
      <use xlink:href="#TimesNewRomanPSMT-33" x="347.185547"/>
      <use xlink:href="#TimesNewRomanPSMT-20" x="397.185547"/>
      <use xlink:href="#TimesNewRomanPSMT-38" x="422.185547"/>
      <use xlink:href="#TimesNewRomanPSMT-42" x="472.185547"/>
      <use xlink:href="#TimesNewRomanPSMT-20" x="538.884766"/>
      <use xlink:href="#TimesNewRomanPSMT-49" x="563.884766"/>
      <use xlink:href="#TimesNewRomanPSMT-6e" x="597.185547"/>
      <use xlink:href="#TimesNewRomanPSMT-73" x="647.185547"/>
      <use xlink:href="#TimesNewRomanPSMT-74" x="686.101562"/>
      <use xlink:href="#TimesNewRomanPSMT-72" x="713.884766"/>
      <use xlink:href="#TimesNewRomanPSMT-75" x="747.185547"/>
      <use xlink:href="#TimesNewRomanPSMT-63" x="797.185547"/>
      <use xlink:href="#TimesNewRomanPSMT-74" x="841.570312"/>
     </g>
    </g>
    <g id="line2d_19">
     <path d="M 378.435798 300.569312 
L 392.435798 300.569312 
L 406.435798 300.569312 
" style="fill: none; stroke: #0000ff; stroke-width: 2; stroke-linecap: square"/>
    </g>
    <g id="text_34">
     <!-- LLaMA 2 7B Instruct -->
     <g transform="translate(417.635798 305.469312) scale(0.14 -0.14)">
      <use xlink:href="#TimesNewRomanPSMT-4c"/>
      <use xlink:href="#TimesNewRomanPSMT-4c" x="61.083984"/>
      <use xlink:href="#TimesNewRomanPSMT-61" x="122.167969"/>
      <use xlink:href="#TimesNewRomanPSMT-4d" x="166.552734"/>
      <use xlink:href="#TimesNewRomanPSMT-41" x="255.46875"/>
      <use xlink:href="#TimesNewRomanPSMT-20" x="322.185547"/>
      <use xlink:href="#TimesNewRomanPSMT-32" x="347.185547"/>
      <use xlink:href="#TimesNewRomanPSMT-20" x="397.185547"/>
      <use xlink:href="#TimesNewRomanPSMT-37" x="422.185547"/>
      <use xlink:href="#TimesNewRomanPSMT-42" x="472.185547"/>
      <use xlink:href="#TimesNewRomanPSMT-20" x="538.884766"/>
      <use xlink:href="#TimesNewRomanPSMT-49" x="563.884766"/>
      <use xlink:href="#TimesNewRomanPSMT-6e" x="597.185547"/>
      <use xlink:href="#TimesNewRomanPSMT-73" x="647.185547"/>
      <use xlink:href="#TimesNewRomanPSMT-74" x="686.101562"/>
      <use xlink:href="#TimesNewRomanPSMT-72" x="713.884766"/>
      <use xlink:href="#TimesNewRomanPSMT-75" x="747.185547"/>
      <use xlink:href="#TimesNewRomanPSMT-63" x="797.185547"/>
      <use xlink:href="#TimesNewRomanPSMT-74" x="841.570312"/>
     </g>
    </g>
   </g>
  </g>
 </g>
 <defs>
  <clipPath id="pfbecce41f5">
   <path d="M 461.539798 225.36 
C 461.539798 196.238744 455.803546 167.400655 444.659324 140.496122 
C 433.515101 113.591589 417.179636 89.143838 396.587798 68.552 
C 375.99596 47.960162 351.548209 31.624697 324.643676 20.480475 
C 297.739144 9.336253 268.901055 3.6 239.779798 3.6 
C 210.658542 3.6 181.820453 9.336253 154.91592 20.480475 
C 128.011388 31.624697 103.563636 47.960162 82.971799 68.552 
C 62.379961 89.143838 46.044496 113.591589 34.900273 140.496122 
C 23.756051 167.400655 18.019798 196.238744 18.019798 225.36 
C 18.019798 254.481256 23.756051 283.319345 34.900273 310.223878 
C 46.044496 337.128411 62.379961 361.576162 82.971799 382.168 
C 103.563636 402.759838 128.011388 419.095303 154.91592 430.239525 
C 181.820453 441.383747 210.658542 447.12 239.779798 447.12 
C 268.901055 447.12 297.739144 441.383747 324.643676 430.239525 
C 351.548209 419.095303 375.99596 402.759838 396.587798 382.168 
C 417.179636 361.576162 433.515101 337.128411 444.659324 310.223878 
C 455.803546 283.319345 461.539798 254.481256 461.539798 225.36 
M 239.779798 225.36 
C 239.779798 225.36 239.779798 225.36 239.779798 225.36 
C 239.779798 225.36 239.779798 225.36 239.779798 225.36 
C 239.779798 225.36 239.779798 225.36 239.779798 225.36 
C 239.779798 225.36 239.779798 225.36 239.779798 225.36 
C 239.779798 225.36 239.779798 225.36 239.779798 225.36 
C 239.779798 225.36 239.779798 225.36 239.779798 225.36 
C 239.779798 225.36 239.779798 225.36 239.779798 225.36 
C 239.779798 225.36 239.779798 225.36 239.779798 225.36 
C 239.779798 225.36 239.779798 225.36 239.779798 225.36 
C 239.779798 225.36 239.779798 225.36 239.779798 225.36 
C 239.779798 225.36 239.779798 225.36 239.779798 225.36 
C 239.779798 225.36 239.779798 225.36 239.779798 225.36 
C 239.779798 225.36 239.779798 225.36 239.779798 225.36 
C 239.779798 225.36 239.779798 225.36 239.779798 225.36 
C 239.779798 225.36 239.779798 225.36 239.779798 225.36 
C 239.779798 225.36 239.779798 225.36 239.779798 225.36 
z
"/>
  </clipPath>
 </defs>
</svg>
