<?xml version="1.0" encoding="utf-8" standalone="no"?>
<!DOCTYPE svg PUBLIC "-//W3C//DTD SVG 1.1//EN"
  "http://www.w3.org/Graphics/SVG/1.1/DTD/svg11.dtd">
<svg xmlns:xlink="http://www.w3.org/1999/xlink" width="518.577563pt" height="450.72pt" viewBox="0 0 518.577563 450.72" xmlns="http://www.w3.org/2000/svg" version="1.1">
 <metadata>
  <rdf:RDF xmlns:dc="http://purl.org/dc/elements/1.1/" xmlns:cc="http://creativecommons.org/ns#" xmlns:rdf="http://www.w3.org/1999/02/22-rdf-syntax-ns#">
   <cc:Work>
    <dc:type rdf:resource="http://purl.org/dc/dcmitype/StillImage"/>
    <dc:date>2025-02-20T15:57:46.486466</dc:date>
    <dc:format>image/svg+xml</dc:format>
    <dc:creator>
     <cc:Agent>
      <dc:title>Matplotlib v3.9.2, https://matplotlib.org/</dc:title>
     </cc:Agent>
    </dc:creator>
   </cc:Work>
  </rdf:RDF>
 </metadata>
 <defs>
  <style type="text/css">*{stroke-linejoin: round; stroke-linecap: butt}</style>
 </defs>
 <g id="figure_1">
  <g id="patch_1">
   <path d="M 0 450.72 
L 518.577563 450.72 
L 518.577563 0 
L 0 0 
z
" style="fill: #ffffff"/>
  </g>
  <g id="axes_1">
   <g id="patch_2">
    <path d="M 447.12 225.36 
C 447.12 196.238744 441.383747 167.400655 430.239525 140.496122 
C 419.095303 113.591589 402.759838 89.143838 382.168 68.552 
C 361.576162 47.960162 337.128411 31.624697 310.223878 20.480475 
C 283.319345 9.336253 254.481256 3.6 225.36 3.6 
C 196.238744 3.6 167.400655 9.336253 140.496122 20.480475 
C 113.591589 31.624697 89.143838 47.960162 68.552 68.552 
C 47.960162 89.143838 31.624697 113.591589 20.480475 140.496122 
C 9.336253 167.400655 3.6 196.238744 3.6 225.36 
C 3.6 254.481256 9.336253 283.319345 20.480475 310.223878 
C 31.624697 337.128411 47.960162 361.576162 68.552 382.168 
C 89.143838 402.759838 113.591589 419.095303 140.496122 430.239525 
C 167.400655 441.383747 196.238744 447.12 225.36 447.12 
C 254.481256 447.12 283.319345 441.383747 310.223878 430.239525 
C 337.128411 419.095303 361.576162 402.759838 382.168 382.168 
C 402.759838 361.576162 419.095303 337.128411 430.239525 310.223878 
C 441.383747 283.319345 447.12 254.481256 447.12 225.36 
M 225.36 225.36 
C 225.36 225.36 225.36 225.36 225.36 225.36 
C 225.36 225.36 225.36 225.36 225.36 225.36 
C 225.36 225.36 225.36 225.36 225.36 225.36 
C 225.36 225.36 225.36 225.36 225.36 225.36 
C 225.36 225.36 225.36 225.36 225.36 225.36 
C 225.36 225.36 225.36 225.36 225.36 225.36 
C 225.36 225.36 225.36 225.36 225.36 225.36 
C 225.36 225.36 225.36 225.36 225.36 225.36 
C 225.36 225.36 225.36 225.36 225.36 225.36 
C 225.36 225.36 225.36 225.36 225.36 225.36 
C 225.36 225.36 225.36 225.36 225.36 225.36 
C 225.36 225.36 225.36 225.36 225.36 225.36 
C 225.36 225.36 225.36 225.36 225.36 225.36 
C 225.36 225.36 225.36 225.36 225.36 225.36 
C 225.36 225.36 225.36 225.36 225.36 225.36 
C 225.36 225.36 225.36 225.36 225.36 225.36 
z
" style="fill: #ffffff"/>
   </g>
   <g id="patch_3">
    <path d="M 356.568 225.36 
L 325.871159 141.021123 
L 245.912826 108.799134 
L 159.756 111.730539 
L 102.064811 180.484221 
L 104.588396 269.317269 
L 170.828405 319.811493 
L 248.14403 354.574656 
L 325.871159 309.698877 
z
" clip-path="url(#p4fc80e4a29)" style="fill: #ff0000; opacity: 0.2; stroke: #ff0000; stroke-linejoin: miter"/>
   </g>
   <g id="patch_4">
    <path d="M 355.572492 225.36 
L 320.672306 145.383479 
L 248.14403 96.145344 
L 176.2956 140.377966 
L 157.16376 200.538598 
L 102.064811 270.235779 
L 159.756 338.989461 
L 241.885756 319.082218 
L 299.068183 287.20851 
z
" clip-path="url(#p4fc80e4a29)" style="fill: #9400d3; opacity: 0.2; stroke: #9400d3; stroke-linejoin: miter"/>
   </g>
   <g id="patch_5">
    <path d="M 316.747666 225.36 
L 309.841362 154.47172 
L 245.226301 112.692607 
L 212.1468 202.474066 
L 210.907817 220.099835 
L 179.214432 242.155613 
L 199.893468 269.469327 
L 235.953433 285.438345 
L 273.833467 266.034068 
z
" clip-path="url(#p4fc80e4a29)" style="fill: #0000ff; opacity: 0.2; stroke: #0000ff; stroke-linejoin: miter"/>
   </g>
   <g id="matplotlib.axis_1"/>
   <g id="matplotlib.axis_2"/>
   <g id="line2d_1">
    <path d="M 356.568 225.36 
L 325.871159 141.021123 
L 245.912826 108.799134 
L 159.756 111.730539 
L 102.064811 180.484221 
L 104.588396 269.317269 
L 170.828405 319.811493 
L 248.14403 354.574656 
L 325.871159 309.698877 
L 356.568 225.36 
" clip-path="url(#p4fc80e4a29)" style="fill: none; stroke: #ff0000; stroke-width: 2; stroke-linecap: square"/>
   </g>
   <g id="line2d_2">
    <path d="M 355.572492 225.36 
L 320.672306 145.383479 
L 248.14403 96.145344 
L 176.2956 140.377966 
L 157.16376 200.538598 
L 102.064811 270.235779 
L 159.756 338.989461 
L 241.885756 319.082218 
L 299.068183 287.20851 
L 355.572492 225.36 
" clip-path="url(#p4fc80e4a29)" style="fill: none; stroke: #9400d3; stroke-width: 2; stroke-linecap: square"/>
   </g>
   <g id="line2d_3">
    <path d="M 316.747666 225.36 
L 309.841362 154.47172 
L 245.226301 112.692607 
L 212.1468 202.474066 
L 210.907817 220.099835 
L 179.214432 242.155613 
L 199.893468 269.469327 
L 235.953433 285.438345 
L 273.833467 266.034068 
L 316.747666 225.36 
" clip-path="url(#p4fc80e4a29)" style="fill: none; stroke: #0000ff; stroke-width: 2; stroke-linecap: square"/>
   </g>
   <g id="line2d_4">
    <path d="M 317.76 225.36 
L 317.575833 219.52904 
L 317.024067 213.721323 
L 316.106901 207.960002 
L 314.827991 202.268042 
L 313.192436 196.668134 
L 311.206755 191.1826 
L 308.878863 185.833307 
L 306.218041 180.641578 
L 303.234895 175.628111 
L 299.941316 170.81289 
L 296.350435 166.215109 
L 292.476565 161.853097 
L 288.335149 157.744243 
L 283.942695 153.904924 
L 279.316713 150.350447 
L 274.475644 147.094979 
L 269.438786 144.151499 
L 264.226217 141.53174 
L 258.858716 139.246145 
L 253.357679 137.303825 
L 247.745035 135.712522 
L 242.043157 134.478581 
L 236.274776 133.60692 
L 230.462885 133.101014 
L 224.630653 132.962879 
L 218.801328 133.193065 
L 212.998148 133.790657 
L 207.244245 134.75327 
L 201.562558 136.077069 
L 195.975734 137.756776 
L 190.506044 139.785694 
L 185.175293 142.155737 
L 180.004729 144.857457 
L 175.014965 147.880083 
L 170.225891 151.211567 
L 165.656598 154.838629 
L 161.3253 158.746809 
L 157.249263 162.920529 
L 153.444736 167.343151 
L 149.926883 171.997046 
L 146.70973 176.86366 
L 143.806099 181.923595 
L 141.227566 187.156681 
L 138.98441 192.542056 
L 137.085572 198.058253 
L 135.538622 203.683283 
L 134.349726 209.394723 
L 133.523624 215.169805 
L 133.063609 220.985508 
L 132.971514 226.818649 
L 133.247707 232.645975 
L 133.891086 238.444258 
L 134.899087 244.190382 
L 136.267692 249.861444 
L 137.991446 255.434835 
L 140.063475 260.888339 
L 142.475522 266.200217 
L 145.217971 271.349294 
L 148.279889 276.315044 
L 151.649071 281.077672 
L 155.312087 285.618193 
L 159.254334 289.918507 
L 163.460097 293.961473 
L 167.912612 297.730972 
L 172.594129 301.21198 
L 177.485986 304.39062 
L 182.568683 307.25422 
L 187.821959 309.791366 
L 193.224873 311.991943 
L 198.755886 313.847181 
L 204.392952 315.349682 
L 210.113598 316.493458 
L 215.89502 317.27395 
L 221.714173 317.688045 
L 227.54786 317.734094 
L 233.372824 317.411913 
L 239.165848 316.722785 
L 244.903837 315.669459 
L 250.563919 314.256133 
L 256.12353 312.488441 
L 261.560509 310.373429 
L 266.853182 307.919529 
L 271.980451 305.136522 
L 276.921878 302.035503 
L 281.657764 298.628833 
L 286.16923 294.930091 
L 290.438293 290.954023 
L 294.447934 286.716478 
L 298.182171 282.234347 
L 301.626117 277.525499 
L 304.766045 272.608704 
L 307.589436 267.503562 
L 310.085037 262.230424 
L 312.242899 256.810308 
L 314.05442 251.264823 
L 315.512379 245.616074 
L 316.610965 239.886578 
L 317.345797 234.099174 
L 317.713947 228.276934 
L 317.76 225.36 
L 317.76 225.36 
" clip-path="url(#p4fc80e4a29)" style="fill: none; stroke-dasharray: 3.7,1.6; stroke-dashoffset: 0; stroke: #808080"/>
   </g>
   <g id="line2d_5">
    <path d="M 336.24 225.36 
L 336.019 218.362848 
L 335.356881 211.393588 
L 334.256281 204.480002 
L 332.72159 197.649651 
L 330.758923 190.929761 
L 328.376106 184.34712 
L 325.582636 177.927968 
L 322.389649 171.697894 
L 318.809874 165.681733 
L 314.85758 159.903468 
L 310.548522 154.386131 
L 305.899878 149.151717 
L 300.930178 144.221091 
L 295.659234 139.613909 
L 290.108056 135.348536 
L 284.298773 131.441975 
L 278.254543 127.909799 
L 271.99946 124.766088 
L 265.558459 122.023374 
L 258.957214 119.69259 
L 252.222042 117.783027 
L 245.379789 116.302298 
L 238.457731 115.256304 
L 231.483462 114.649216 
L 224.484783 114.483454 
L 217.489593 114.759679 
L 210.525777 115.476788 
L 203.621095 116.631925 
L 196.80307 118.220483 
L 190.098881 120.236131 
L 183.535253 122.670833 
L 177.138351 125.514885 
L 170.933675 128.756948 
L 164.945958 132.3841 
L 159.19907 136.381881 
L 153.715918 140.734355 
L 148.51836 145.424171 
L 143.627116 150.432635 
L 139.061683 155.739782 
L 134.84026 161.324455 
L 130.979676 167.164392 
L 127.495319 173.236315 
L 124.401079 179.516017 
L 121.709292 185.978467 
L 119.430686 192.597904 
L 117.574346 199.34794 
L 116.147672 206.201667 
L 115.156349 213.131766 
L 114.604331 220.110609 
L 114.493817 227.110379 
L 114.825248 234.10317 
L 115.597303 241.061109 
L 116.806905 247.956459 
L 118.449231 254.761732 
L 120.517735 261.449802 
L 123.00417 267.994007 
L 125.898627 274.36826 
L 129.189565 280.547153 
L 132.863867 286.506052 
L 136.906885 292.221206 
L 141.302504 297.669832 
L 146.0332 302.830209 
L 151.080117 307.681767 
L 156.423135 312.205167 
L 162.040955 316.382376 
L 167.911184 320.196743 
L 174.01042 323.633064 
L 180.314351 326.677639 
L 186.797847 329.318332 
L 193.435063 331.544617 
L 200.199542 333.347618 
L 207.064317 334.72015 
L 214.002024 335.65674 
L 220.985008 336.153654 
L 227.985431 336.208913 
L 234.975389 335.822295 
L 241.927017 334.995343 
L 248.812604 333.731351 
L 255.604702 332.03536 
L 262.276236 329.914129 
L 268.800611 327.376115 
L 275.151819 324.431435 
L 281.304542 321.091827 
L 287.234253 317.370603 
L 292.917316 313.282599 
L 298.331076 308.844109 
L 303.453951 304.072827 
L 308.265521 298.987773 
L 312.746605 293.609217 
L 316.879341 287.958599 
L 320.647254 282.058445 
L 324.035323 275.932275 
L 327.030044 269.604508 
L 329.619479 263.10037 
L 331.793304 256.445788 
L 333.542855 249.667288 
L 334.861158 242.791893 
L 335.742956 235.847009 
L 336.184736 228.860321 
L 336.24 225.36 
L 336.24 225.36 
" clip-path="url(#p4fc80e4a29)" style="fill: none; stroke-dasharray: 3.7,1.6; stroke-dashoffset: 0; stroke: #808080"/>
   </g>
   <g id="line2d_6">
    <path d="M 354.72 225.36 
L 354.655526 221.276292 
L 354.462167 217.196656 
L 354.140116 213.125156 
L 353.689694 209.065853 
L 353.11135 205.022791 
L 352.405662 201.000003 
L 351.573331 197.001497 
L 350.615188 193.031259 
L 349.532188 189.093248 
L 348.32541 185.191387 
L 346.996058 181.329568 
L 345.545457 177.511639 
L 343.975052 173.741407 
L 342.286408 170.022629 
L 340.48121 166.359013 
L 338.561257 162.75421 
L 336.528462 159.211814 
L 334.384853 155.735356 
L 332.132564 152.328301 
L 329.773843 148.994046 
L 327.31104 145.735914 
L 324.746609 142.557153 
L 322.083108 139.460931 
L 319.323191 136.450336 
L 316.46961 133.528368 
L 313.525208 130.69794 
L 310.492922 127.961872 
L 307.375773 125.322894 
L 304.176869 122.783634 
L 300.899399 120.346625 
L 297.546629 118.014296 
L 294.121902 115.788971 
L 290.628632 113.672869 
L 287.070301 111.668099 
L 283.450455 109.776659 
L 279.772704 108.000436 
L 276.040713 106.341199 
L 272.258202 104.800603 
L 268.428942 103.380183 
L 264.55675 102.081355 
L 260.645486 100.905414 
L 256.699049 99.853531 
L 252.721372 98.926757 
L 248.71642 98.126014 
L 244.688187 97.4521 
L 240.640686 96.905688 
L 236.577954 96.487322 
L 232.504039 96.197419 
L 228.423003 96.036268 
L 224.338914 96.00403 
L 220.255843 96.100737 
L 216.177859 96.326292 
L 212.109029 96.68047 
L 208.053407 97.16292 
L 204.015037 97.773158 
L 199.997944 98.510579 
L 196.006132 99.374445 
L 192.043581 100.363897 
L 188.114241 101.477947 
L 184.222028 102.715486 
L 180.370822 104.075279 
L 176.564462 105.555972 
L 172.806743 107.156088 
L 169.10141 108.874032 
L 165.452157 110.708092 
L 161.862621 112.65644 
L 158.336381 114.717133 
L 154.876951 116.888117 
L 151.487781 119.167228 
L 148.172248 121.552194 
L 144.933657 124.040639 
L 141.775237 126.63008 
L 138.700136 129.317938 
L 135.71142 132.101533 
L 132.812067 134.97809 
L 130.004968 137.944741 
L 127.292921 140.99853 
L 124.67863 144.136412 
L 122.1647 147.355259 
L 119.753637 150.651864 
L 117.447845 154.022939 
L 115.249622 157.465124 
L 113.161159 160.974989 
L 111.184539 164.549034 
L 109.321731 168.183696 
L 107.574593 171.875353 
L 105.944865 175.620325 
L 104.434174 179.414879 
L 103.044024 183.255231 
L 101.775801 187.137555 
L 100.630769 191.057979 
L 99.610071 195.012596 
L 98.714722 198.997465 
L 97.945617 203.008612 
L 97.303521 207.042039 
L 96.789074 211.093727 
L 96.402789 215.159635 
L 96.145052 219.235711 
L 96.01612 223.317892 
L 96.01612 227.402108 
L 96.145052 231.484289 
L 96.402789 235.560365 
L 96.789074 239.626273 
L 97.303521 243.677961 
L 97.945617 247.711388 
L 98.714722 251.722535 
L 99.610071 255.707404 
L 100.630769 259.662021 
L 101.775801 263.582445 
L 103.044024 267.464769 
L 104.434174 271.305121 
L 105.944865 275.099675 
L 107.574593 278.844647 
L 109.321731 282.536304 
L 111.184539 286.170966 
L 113.161159 289.745011 
L 115.249622 293.254876 
L 117.447845 296.697061 
L 119.753637 300.068136 
L 122.1647 303.364741 
L 124.67863 306.583588 
L 127.292921 309.72147 
L 130.004968 312.775259 
L 132.812067 315.74191 
L 135.71142 318.618467 
L 138.700136 321.402062 
L 141.775237 324.08992 
L 144.933657 326.679361 
L 148.172248 329.167806 
L 151.487781 331.552772 
L 154.876951 333.831883 
L 158.336381 336.002867 
L 161.862621 338.06356 
L 165.452157 340.011908 
L 169.10141 341.845968 
L 172.806743 343.563912 
L 176.564462 345.164028 
L 180.370822 346.644721 
L 184.222028 348.004514 
L 188.114241 349.242053 
L 192.043581 350.356103 
L 196.006132 351.345555 
L 199.997944 352.209421 
L 204.015037 352.946842 
L 208.053407 353.55708 
L 212.109029 354.03953 
L 216.177859 354.393708 
L 220.255843 354.619263 
L 224.338914 354.71597 
L 228.423003 354.683732 
L 232.504039 354.522581 
L 236.577954 354.232678 
L 240.640686 353.814312 
L 244.688187 353.2679 
L 248.71642 352.593986 
L 252.721372 351.793243 
L 256.699049 350.866469 
L 260.645486 349.814586 
L 264.55675 348.638645 
L 268.428942 347.339817 
L 272.258202 345.919397 
L 276.040713 344.378801 
L 279.772704 342.719564 
L 283.450455 340.943341 
L 287.070301 339.051901 
L 290.628632 337.047131 
L 294.121902 334.931029 
L 297.546629 332.705704 
L 300.899399 330.373375 
L 304.176869 327.936366 
L 307.375773 325.397106 
L 310.492922 322.758128 
L 313.525208 320.02206 
L 316.46961 317.191632 
L 319.323191 314.269664 
L 322.083108 311.259069 
L 324.746609 308.162847 
L 327.31104 304.984086 
L 329.773843 301.725954 
L 332.132564 298.391699 
L 334.384853 294.984644 
L 336.528462 291.508186 
L 338.561257 287.96579 
L 340.48121 284.360987 
L 342.286408 280.697371 
L 343.975052 276.978593 
L 345.545457 273.208361 
L 346.996058 269.390432 
L 348.32541 265.528613 
L 349.532188 261.626752 
L 350.615188 257.688741 
L 351.573331 253.718503 
L 352.405662 249.719997 
L 353.11135 245.697209 
L 353.689694 241.654147 
L 354.140116 237.594844 
L 354.462167 233.523344 
L 354.655526 229.443708 
L 354.72 225.36 
L 354.72 225.36 
" clip-path="url(#p4fc80e4a29)" style="fill: none; stroke-dasharray: 3.7,1.6; stroke-dashoffset: 0; stroke: #808080"/>
   </g>
   <g id="line2d_7">
    <path d="M 225.36 225.36 
L 386.136 225.36 
" clip-path="url(#p4fc80e4a29)" style="fill: none; stroke-dasharray: 3.7,1.6; stroke-dashoffset: 0; stroke: #808080; stroke-opacity: 0.6"/>
   </g>
   <g id="line2d_8">
    <path d="M 225.36 225.36 
L 348.521561 122.015179 
" clip-path="url(#p4fc80e4a29)" style="fill: none; stroke-dasharray: 3.7,1.6; stroke-dashoffset: 0; stroke: #808080; stroke-opacity: 0.6"/>
   </g>
   <g id="line2d_9">
    <path d="M 225.36 225.36 
L 253.278459 67.026549 
" clip-path="url(#p4fc80e4a29)" style="fill: none; stroke-dasharray: 3.7,1.6; stroke-dashoffset: 0; stroke: #808080; stroke-opacity: 0.6"/>
   </g>
   <g id="line2d_10">
    <path d="M 225.36 225.36 
L 144.972 86.1239 
" clip-path="url(#p4fc80e4a29)" style="fill: none; stroke-dasharray: 3.7,1.6; stroke-dashoffset: 0; stroke: #808080; stroke-opacity: 0.6"/>
   </g>
   <g id="line2d_11">
    <path d="M 225.36 225.36 
L 74.279979 170.371369 
" clip-path="url(#p4fc80e4a29)" style="fill: none; stroke-dasharray: 3.7,1.6; stroke-dashoffset: 0; stroke: #808080; stroke-opacity: 0.6"/>
   </g>
   <g id="line2d_12">
    <path d="M 225.36 225.36 
L 74.279979 280.348631 
" clip-path="url(#p4fc80e4a29)" style="fill: none; stroke-dasharray: 3.7,1.6; stroke-dashoffset: 0; stroke: #808080; stroke-opacity: 0.6"/>
   </g>
   <g id="line2d_13">
    <path d="M 225.36 225.36 
L 144.972 364.5961 
" clip-path="url(#p4fc80e4a29)" style="fill: none; stroke-dasharray: 3.7,1.6; stroke-dashoffset: 0; stroke: #808080; stroke-opacity: 0.6"/>
   </g>
   <g id="line2d_14">
    <path d="M 225.36 225.36 
L 253.278459 383.693451 
" clip-path="url(#p4fc80e4a29)" style="fill: none; stroke-dasharray: 3.7,1.6; stroke-dashoffset: 0; stroke: #808080; stroke-opacity: 0.6"/>
   </g>
   <g id="line2d_15">
    <path d="M 225.36 225.36 
L 348.521561 328.704821 
" clip-path="url(#p4fc80e4a29)" style="fill: none; stroke-dasharray: 3.7,1.6; stroke-dashoffset: 0; stroke: #808080; stroke-opacity: 0.6"/>
   </g>
   <g id="line2d_16">
    <path d="M 447.12 225.36 
L 446.983549 217.581813 
L 446.574363 209.813197 
L 445.892947 202.063714 
L 444.940138 194.342899 
L 443.71711 186.660255 
L 442.225367 179.025236 
L 440.466745 171.447237 
L 438.443408 163.935584 
L 436.157846 156.499521 
L 433.612873 149.1482 
L 430.811619 141.890666 
L 427.757533 134.735851 
L 424.454372 127.69256 
L 420.906201 120.769461 
L 417.117387 113.975073 
L 413.092593 107.317757 
L 408.836771 100.805707 
L 404.355159 94.446935 
L 399.653272 88.249268 
L 394.736897 82.220332 
L 389.612082 76.367547 
L 384.285136 70.698114 
L 378.762613 65.219012 
L 373.05131 59.936983 
L 367.158255 54.858526 
L 361.0907 49.989892 
L 354.856112 45.337072 
L 348.462164 40.905792 
L 341.916723 36.701505 
L 335.227846 32.729385 
L 328.403763 28.994319 
L 321.452872 25.500906 
L 314.383728 22.253443 
L 307.205029 19.255927 
L 299.92561 16.512047 
L 292.554429 14.02518 
L 285.100557 11.798385 
L 277.573167 9.834403 
L 269.981523 8.135652 
L 263.86822 6.969033 
L 263.86822 6.969033 
" clip-path="url(#p4fc80e4a29)" style="fill: none; stroke: #000000; stroke-opacity: 0.7; stroke-width: 2; stroke-linecap: square"/>
   </g>
   <g id="line2d_17">
    <path d="M 114.48 33.310206 
L 108.47253 36.906247 
L 102.581577 40.690142 
L 96.813011 44.65812 
L 91.172584 48.806226 
L 85.665918 53.130325 
L 80.298502 57.626105 
L 75.075686 62.289087 
L 70.002677 67.114621 
L 65.084532 72.097898 
L 60.326153 77.233949 
L 55.732283 82.517656 
L 51.307502 87.943751 
L 47.05622 93.506826 
L 42.982675 99.201335 
L 39.090927 105.021601 
L 35.384857 110.961824 
L 31.868158 117.016081 
L 28.544336 123.178338 
L 25.416705 129.442451 
L 22.488381 135.802177 
L 19.762283 142.251177 
L 17.24113 148.783021 
L 16.973764 149.513613 
L 16.973764 149.513613 
" clip-path="url(#p4fc80e4a29)" style="fill: none; stroke: #000000; stroke-opacity: 0.7; stroke-width: 2; stroke-linecap: square"/>
   </g>
   <g id="line2d_18">
    <path d="M 16.973764 301.206387 
L 19.471987 307.747036 
L 22.175443 314.205559 
L 25.081438 320.575519 
L 28.187075 326.850566 
L 31.489258 333.024446 
L 34.984695 339.091003 
L 38.669903 345.04419 
L 42.541208 350.878074 
L 46.59475 356.586839 
L 50.82649 362.164793 
L 55.232208 367.606378 
L 59.807514 372.906169 
L 64.547845 378.058882 
L 69.448478 383.059382 
L 74.504527 387.902683 
L 79.710952 392.583959 
L 85.062563 397.098542 
L 90.554025 401.441932 
L 96.179865 405.6098 
L 101.934475 409.597991 
L 107.812118 413.40253 
L 113.806935 417.019623 
L 114.48 417.409794 
L 114.48 417.409794 
" clip-path="url(#p4fc80e4a29)" style="fill: none; stroke: #000000; stroke-opacity: 0.7; stroke-width: 2; stroke-linecap: square"/>
   </g>
   <g id="line2d_19">
    <path d="M 263.86822 443.750967 
L 270.743313 442.42647 
L 277.573167 440.885597 
L 284.350974 439.129882 
L 291.069978 437.161078 
L 297.72348 434.981145 
L 304.304849 432.592257 
L 310.807523 429.996796 
L 317.225022 427.197349 
L 323.550948 424.196705 
L 329.778995 420.997857 
L 335.902955 417.603993 
L 341.916723 414.018495 
L 347.814305 410.244939 
L 353.589822 406.287086 
L 359.237517 402.14888 
L 364.751759 397.834448 
L 370.127053 393.348089 
L 375.35804 388.694276 
L 380.439505 383.877648 
L 385.366384 378.903006 
L 390.133766 373.775309 
L 394.736897 368.499668 
L 395.238016 367.90458 
L 395.238016 367.90458 
" clip-path="url(#p4fc80e4a29)" style="fill: none; stroke: #000000; stroke-opacity: 0.7; stroke-width: 2; stroke-linecap: square"/>
   </g>
   <g id="text_1">
    <!-- 46 -->
    <g style="fill: #808080" transform="translate(314.456 222.365312) scale(0.14 -0.14)">
     <defs>
      <path id="TimesNewRomanPSMT-34" d="M 2978 1563 
L 2978 1119 
L 2409 1119 
L 2409 0 
L 1894 0 
L 1894 1119 
L 100 1119 
L 100 1519 
L 2066 4325 
L 2409 4325 
L 2409 1563 
L 2978 1563 
z
M 1894 1563 
L 1894 3666 
L 406 1563 
L 1894 1563 
z
" transform="scale(0.015625)"/>
      <path id="TimesNewRomanPSMT-36" d="M 2869 4325 
L 2869 4209 
Q 2456 4169 2195 4045 
Q 1934 3922 1679 3669 
Q 1425 3416 1258 3105 
Q 1091 2794 978 2366 
Q 1428 2675 1881 2675 
Q 2316 2675 2634 2325 
Q 2953 1975 2953 1425 
Q 2953 894 2631 456 
Q 2244 -75 1606 -75 
Q 1172 -75 869 213 
Q 275 772 275 1663 
Q 275 2231 503 2743 
Q 731 3256 1154 3653 
Q 1578 4050 1965 4187 
Q 2353 4325 2688 4325 
L 2869 4325 
z
M 925 2138 
Q 869 1716 869 1456 
Q 869 1156 980 804 
Q 1091 453 1309 247 
Q 1469 100 1697 100 
Q 1969 100 2183 356 
Q 2397 613 2397 1088 
Q 2397 1622 2184 2012 
Q 1972 2403 1581 2403 
Q 1463 2403 1327 2353 
Q 1191 2303 925 2138 
z
" transform="scale(0.015625)"/>
     </defs>
     <use xlink:href="#TimesNewRomanPSMT-34"/>
     <use xlink:href="#TimesNewRomanPSMT-36" x="50"/>
    </g>
   </g>
   <g id="text_2">
    <!-- 33 -->
    <g style="fill: #808080" transform="translate(291.973807 160.595994) scale(0.14 -0.14)">
     <defs>
      <path id="TimesNewRomanPSMT-33" d="M 325 3431 
Q 506 3859 782 4092 
Q 1059 4325 1472 4325 
Q 1981 4325 2253 3994 
Q 2459 3747 2459 3466 
Q 2459 3003 1878 2509 
Q 2269 2356 2469 2072 
Q 2669 1788 2669 1403 
Q 2669 853 2319 450 
Q 1863 -75 997 -75 
Q 569 -75 414 31 
Q 259 138 259 259 
Q 259 350 332 419 
Q 406 488 509 488 
Q 588 488 669 463 
Q 722 447 909 348 
Q 1097 250 1169 231 
Q 1284 197 1416 197 
Q 1734 197 1970 444 
Q 2206 691 2206 1028 
Q 2206 1275 2097 1509 
Q 2016 1684 1919 1775 
Q 1784 1900 1550 2001 
Q 1316 2103 1072 2103 
L 972 2103 
L 972 2197 
Q 1219 2228 1467 2375 
Q 1716 2522 1828 2728 
Q 1941 2934 1941 3181 
Q 1941 3503 1739 3701 
Q 1538 3900 1238 3900 
Q 753 3900 428 3381 
L 325 3431 
z
" transform="scale(0.015625)"/>
     </defs>
     <use xlink:href="#TimesNewRomanPSMT-33"/>
     <use xlink:href="#TimesNewRomanPSMT-33" x="50"/>
    </g>
   </g>
   <g id="text_3">
    <!-- 37 -->
    <g style="fill: #808080" transform="translate(235.046895 127.729227) scale(0.14 -0.14)">
     <defs>
      <path id="TimesNewRomanPSMT-37" d="M 644 4238 
L 2916 4238 
L 2916 4119 
L 1503 -88 
L 1153 -88 
L 2419 3728 
L 1253 3728 
Q 900 3728 750 3644 
Q 488 3500 328 3200 
L 238 3234 
L 644 4238 
z
" transform="scale(0.015625)"/>
     </defs>
     <use xlink:href="#TimesNewRomanPSMT-33"/>
     <use xlink:href="#TimesNewRomanPSMT-37" x="50"/>
    </g>
   </g>
   <g id="text_4">
    <!-- 50 -->
    <g style="fill: #808080" transform="translate(170.312 139.143735) scale(0.14 -0.14)">
     <defs>
      <path id="TimesNewRomanPSMT-35" d="M 2778 4238 
L 2534 3706 
L 1259 3706 
L 981 3138 
Q 1809 3016 2294 2522 
Q 2709 2097 2709 1522 
Q 2709 1188 2573 903 
Q 2438 619 2231 419 
Q 2025 219 1772 97 
Q 1413 -75 1034 -75 
Q 653 -75 479 54 
Q 306 184 306 341 
Q 306 428 378 495 
Q 450 563 559 563 
Q 641 563 702 538 
Q 763 513 909 409 
Q 1144 247 1384 247 
Q 1750 247 2026 523 
Q 2303 800 2303 1197 
Q 2303 1581 2056 1914 
Q 1809 2247 1375 2428 
Q 1034 2569 447 2591 
L 1259 4238 
L 2778 4238 
z
" transform="scale(0.015625)"/>
      <path id="TimesNewRomanPSMT-30" d="M 231 2094 
Q 231 2819 450 3342 
Q 669 3866 1031 4122 
Q 1313 4325 1613 4325 
Q 2100 4325 2488 3828 
Q 2972 3213 2972 2159 
Q 2972 1422 2759 906 
Q 2547 391 2217 158 
Q 1888 -75 1581 -75 
Q 975 -75 572 641 
Q 231 1244 231 2094 
z
M 844 2016 
Q 844 1141 1059 588 
Q 1238 122 1591 122 
Q 1759 122 1940 273 
Q 2122 425 2216 781 
Q 2359 1319 2359 2297 
Q 2359 3022 2209 3506 
Q 2097 3866 1919 4016 
Q 1791 4119 1609 4119 
Q 1397 4119 1231 3928 
Q 1006 3669 925 3112 
Q 844 2556 844 2016 
z
" transform="scale(0.015625)"/>
     </defs>
     <use xlink:href="#TimesNewRomanPSMT-35"/>
     <use xlink:href="#TimesNewRomanPSMT-30" x="50"/>
    </g>
   </g>
   <g id="text_5">
    <!-- 19 -->
    <g style="fill: #808080" transform="translate(128.059298 189.498545) scale(0.14 -0.14)">
     <defs>
      <path id="TimesNewRomanPSMT-31" d="M 750 3822 
L 1781 4325 
L 1884 4325 
L 1884 747 
Q 1884 391 1914 303 
Q 1944 216 2037 169 
Q 2131 122 2419 116 
L 2419 0 
L 825 0 
L 825 116 
Q 1125 122 1212 167 
Q 1300 213 1334 289 
Q 1369 366 1369 747 
L 1369 3034 
Q 1369 3497 1338 3628 
Q 1316 3728 1258 3775 
Q 1200 3822 1119 3822 
Q 1003 3822 797 3725 
L 750 3822 
z
" transform="scale(0.015625)"/>
      <path id="TimesNewRomanPSMT-39" d="M 338 -88 
L 338 28 
Q 744 34 1094 217 
Q 1444 400 1770 856 
Q 2097 1313 2225 1859 
Q 1734 1544 1338 1544 
Q 891 1544 572 1889 
Q 253 2234 253 2806 
Q 253 3363 572 3797 
Q 956 4325 1575 4325 
Q 2097 4325 2469 3894 
Q 2925 3359 2925 2575 
Q 2925 1869 2578 1258 
Q 2231 647 1613 244 
Q 1109 -88 516 -88 
L 338 -88 
z
M 2275 2091 
Q 2331 2497 2331 2741 
Q 2331 3044 2228 3395 
Q 2125 3747 1936 3934 
Q 1747 4122 1506 4122 
Q 1228 4122 1018 3872 
Q 809 3622 809 3128 
Q 809 2469 1088 2097 
Q 1291 1828 1588 1828 
Q 1731 1828 1928 1897 
Q 2125 1966 2275 2091 
z
" transform="scale(0.015625)"/>
     </defs>
     <use xlink:href="#TimesNewRomanPSMT-31"/>
     <use xlink:href="#TimesNewRomanPSMT-39" x="50"/>
    </g>
   </g>
   <g id="text_6">
    <!-- 24 -->
    <g style="fill: #808080" transform="translate(128.059298 255.23208) scale(0.14 -0.14)">
     <defs>
      <path id="TimesNewRomanPSMT-32" d="M 2934 816 
L 2638 0 
L 138 0 
L 138 116 
Q 1241 1122 1691 1759 
Q 2141 2397 2141 2925 
Q 2141 3328 1894 3587 
Q 1647 3847 1303 3847 
Q 991 3847 742 3664 
Q 494 3481 375 3128 
L 259 3128 
Q 338 3706 661 4015 
Q 984 4325 1469 4325 
Q 1984 4325 2329 3994 
Q 2675 3663 2675 3213 
Q 2675 2891 2525 2569 
Q 2294 2063 1775 1497 
Q 997 647 803 472 
L 1909 472 
Q 2247 472 2383 497 
Q 2519 522 2628 598 
Q 2738 675 2819 816 
L 2934 816 
z
" transform="scale(0.015625)"/>
     </defs>
     <use xlink:href="#TimesNewRomanPSMT-32"/>
     <use xlink:href="#TimesNewRomanPSMT-34" x="50"/>
    </g>
   </g>
   <g id="text_7">
    <!-- 33 -->
    <g style="fill: #808080" transform="translate(170.312 305.58689) scale(0.14 -0.14)">
     <use xlink:href="#TimesNewRomanPSMT-33"/>
     <use xlink:href="#TimesNewRomanPSMT-33" x="50"/>
    </g>
   </g>
   <g id="text_8">
    <!-- 49 -->
    <g style="fill: #808080" transform="translate(235.046895 317.001398) scale(0.14 -0.14)">
     <use xlink:href="#TimesNewRomanPSMT-34"/>
     <use xlink:href="#TimesNewRomanPSMT-39" x="50"/>
    </g>
   </g>
   <g id="text_9">
    <!-- 50 -->
    <g style="fill: #808080" transform="translate(291.973807 284.134631) scale(0.14 -0.14)">
     <use xlink:href="#TimesNewRomanPSMT-35"/>
     <use xlink:href="#TimesNewRomanPSMT-30" x="50"/>
    </g>
   </g>
   <g id="text_10">
    <!-- 56 -->
    <g style="fill: #808080" transform="translate(332.936 222.365312) scale(0.14 -0.14)">
     <use xlink:href="#TimesNewRomanPSMT-35"/>
     <use xlink:href="#TimesNewRomanPSMT-36" x="50"/>
    </g>
   </g>
   <g id="text_11">
    <!-- 39 -->
    <g style="fill: #808080" transform="translate(306.130308 148.717279) scale(0.14 -0.14)">
     <use xlink:href="#TimesNewRomanPSMT-33"/>
     <use xlink:href="#TimesNewRomanPSMT-39" x="50"/>
    </g>
   </g>
   <g id="text_12">
    <!-- 45 -->
    <g style="fill: #808080" transform="translate(238.255914 109.529979) scale(0.14 -0.14)">
     <use xlink:href="#TimesNewRomanPSMT-34"/>
     <use xlink:href="#TimesNewRomanPSMT-35" x="50"/>
    </g>
   </g>
   <g id="text_13">
    <!-- 60 -->
    <g style="fill: #808080" transform="translate(161.072 123.139586) scale(0.14 -0.14)">
     <use xlink:href="#TimesNewRomanPSMT-36"/>
     <use xlink:href="#TimesNewRomanPSMT-30" x="50"/>
    </g>
   </g>
   <g id="text_14">
    <!-- 23 -->
    <g style="fill: #808080" transform="translate(110.693778 183.178013) scale(0.14 -0.14)">
     <use xlink:href="#TimesNewRomanPSMT-32"/>
     <use xlink:href="#TimesNewRomanPSMT-33" x="50"/>
    </g>
   </g>
   <g id="text_15">
    <!-- 29 -->
    <g style="fill: #808080" transform="translate(110.693778 261.552612) scale(0.14 -0.14)">
     <use xlink:href="#TimesNewRomanPSMT-32"/>
     <use xlink:href="#TimesNewRomanPSMT-39" x="50"/>
    </g>
   </g>
   <g id="text_16">
    <!-- 40 -->
    <g style="fill: #808080" transform="translate(161.072 321.591039) scale(0.14 -0.14)">
     <use xlink:href="#TimesNewRomanPSMT-34"/>
     <use xlink:href="#TimesNewRomanPSMT-30" x="50"/>
    </g>
   </g>
   <g id="text_17">
    <!-- 59 -->
    <g style="fill: #808080" transform="translate(238.255914 335.200646) scale(0.14 -0.14)">
     <use xlink:href="#TimesNewRomanPSMT-35"/>
     <use xlink:href="#TimesNewRomanPSMT-39" x="50"/>
    </g>
   </g>
   <g id="text_18">
    <!-- 60 -->
    <g style="fill: #808080" transform="translate(306.130308 296.013346) scale(0.14 -0.14)">
     <use xlink:href="#TimesNewRomanPSMT-36"/>
     <use xlink:href="#TimesNewRomanPSMT-30" x="50"/>
    </g>
   </g>
   <g id="text_19">
    <!-- 65 -->
    <g style="fill: #808080" transform="translate(351.416 222.365312) scale(0.14 -0.14)">
     <use xlink:href="#TimesNewRomanPSMT-36"/>
     <use xlink:href="#TimesNewRomanPSMT-35" x="50"/>
    </g>
   </g>
   <g id="text_20">
    <!-- 46 -->
    <g style="fill: #808080" transform="translate(320.286809 136.838564) scale(0.14 -0.14)">
     <use xlink:href="#TimesNewRomanPSMT-34"/>
     <use xlink:href="#TimesNewRomanPSMT-36" x="50"/>
    </g>
   </g>
   <g id="text_21">
    <!-- 52 -->
    <g style="fill: #808080" transform="translate(241.464932 91.330732) scale(0.14 -0.14)">
     <use xlink:href="#TimesNewRomanPSMT-35"/>
     <use xlink:href="#TimesNewRomanPSMT-32" x="50"/>
    </g>
   </g>
   <g id="text_22">
    <!-- 70 -->
    <g style="fill: #808080" transform="translate(151.832 107.135436) scale(0.14 -0.14)">
     <use xlink:href="#TimesNewRomanPSMT-37"/>
     <use xlink:href="#TimesNewRomanPSMT-30" x="50"/>
    </g>
   </g>
   <g id="text_23">
    <!-- 27 -->
    <g style="fill: #808080" transform="translate(93.328259 176.85748) scale(0.14 -0.14)">
     <use xlink:href="#TimesNewRomanPSMT-32"/>
     <use xlink:href="#TimesNewRomanPSMT-37" x="50"/>
    </g>
   </g>
   <g id="text_24">
    <!-- 34 -->
    <g style="fill: #808080" transform="translate(93.328259 267.873145) scale(0.14 -0.14)">
     <use xlink:href="#TimesNewRomanPSMT-33"/>
     <use xlink:href="#TimesNewRomanPSMT-34" x="50"/>
    </g>
   </g>
   <g id="text_25">
    <!-- 47 -->
    <g style="fill: #808080" transform="translate(151.832 337.595189) scale(0.14 -0.14)">
     <use xlink:href="#TimesNewRomanPSMT-34"/>
     <use xlink:href="#TimesNewRomanPSMT-37" x="50"/>
    </g>
   </g>
   <g id="text_26">
    <!-- 69 -->
    <g style="fill: #808080" transform="translate(241.464932 353.399893) scale(0.14 -0.14)">
     <use xlink:href="#TimesNewRomanPSMT-36"/>
     <use xlink:href="#TimesNewRomanPSMT-39" x="50"/>
    </g>
   </g>
   <g id="text_27">
    <!-- 70 -->
    <g style="fill: #808080" transform="translate(320.286809 307.892061) scale(0.14 -0.14)">
     <use xlink:href="#TimesNewRomanPSMT-37"/>
     <use xlink:href="#TimesNewRomanPSMT-30" x="50"/>
    </g>
   </g>
   <g id="text_28">
    <!-- MMLU -->
    <g transform="translate(379.140156 228.723281) scale(0.14 -0.14)">
     <defs>
      <path id="TimesNewRomanPSMT-4d" d="M 2619 0 
L 981 3566 
L 981 734 
Q 981 344 1066 247 
Q 1181 116 1431 116 
L 1581 116 
L 1581 0 
L 106 0 
L 106 116 
L 256 116 
Q 525 116 638 278 
Q 706 378 706 734 
L 706 3503 
Q 706 3784 644 3909 
Q 600 4000 483 4061 
Q 366 4122 106 4122 
L 106 4238 
L 1306 4238 
L 2844 922 
L 4356 4238 
L 5556 4238 
L 5556 4122 
L 5409 4122 
Q 5138 4122 5025 3959 
Q 4956 3859 4956 3503 
L 4956 734 
Q 4956 344 5044 247 
Q 5159 116 5409 116 
L 5556 116 
L 5556 0 
L 3756 0 
L 3756 116 
L 3906 116 
Q 4178 116 4288 278 
Q 4356 378 4356 734 
L 4356 3566 
L 2722 0 
L 2619 0 
z
" transform="scale(0.015625)"/>
      <path id="TimesNewRomanPSMT-4c" d="M 3669 1172 
L 3772 1150 
L 3409 0 
L 128 0 
L 128 116 
L 288 116 
Q 556 116 672 291 
Q 738 391 738 753 
L 738 3488 
Q 738 3884 650 3984 
Q 528 4122 288 4122 
L 128 4122 
L 128 4238 
L 2047 4238 
L 2047 4122 
Q 1709 4125 1573 4059 
Q 1438 3994 1388 3894 
Q 1338 3794 1338 3416 
L 1338 753 
Q 1338 494 1388 397 
Q 1425 331 1503 300 
Q 1581 269 1991 269 
L 2300 269 
Q 2788 269 2984 341 
Q 3181 413 3343 595 
Q 3506 778 3669 1172 
z
" transform="scale(0.015625)"/>
      <path id="TimesNewRomanPSMT-55" d="M 3053 4122 
L 3053 4238 
L 4553 4238 
L 4553 4122 
L 4394 4122 
Q 4144 4122 4009 3913 
Q 3944 3816 3944 3463 
L 3944 1744 
Q 3944 1106 3817 754 
Q 3691 403 3320 151 
Q 2950 -100 2313 -100 
Q 1619 -100 1259 140 
Q 900 381 750 788 
Q 650 1066 650 1831 
L 650 3488 
Q 650 3878 542 4000 
Q 434 4122 194 4122 
L 34 4122 
L 34 4238 
L 1866 4238 
L 1866 4122 
L 1703 4122 
Q 1441 4122 1328 3956 
Q 1250 3844 1250 3488 
L 1250 1641 
Q 1250 1394 1295 1075 
Q 1341 756 1459 578 
Q 1578 400 1801 284 
Q 2025 169 2350 169 
Q 2766 169 3094 350 
Q 3422 531 3542 814 
Q 3663 1097 3663 1772 
L 3663 3488 
Q 3663 3884 3575 3984 
Q 3453 4122 3213 4122 
L 3053 4122 
z
" transform="scale(0.015625)"/>
     </defs>
     <use xlink:href="#TimesNewRomanPSMT-4d"/>
     <use xlink:href="#TimesNewRomanPSMT-4d" x="88.916016"/>
     <use xlink:href="#TimesNewRomanPSMT-4c" x="177.832031"/>
     <use xlink:href="#TimesNewRomanPSMT-55" x="238.916016"/>
    </g>
   </g>
   <g id="text_29">
    <!-- TruthfulQA -->
    <g transform="translate(326.654731 115.875488) scale(0.14 -0.14)">
     <defs>
      <path id="TimesNewRomanPSMT-54" d="M 3703 4238 
L 3750 3244 
L 3631 3244 
Q 3597 3506 3538 3619 
Q 3441 3800 3280 3886 
Q 3119 3972 2856 3972 
L 2259 3972 
L 2259 734 
Q 2259 344 2344 247 
Q 2463 116 2709 116 
L 2856 116 
L 2856 0 
L 1059 0 
L 1059 116 
L 1209 116 
Q 1478 116 1591 278 
Q 1659 378 1659 734 
L 1659 3972 
L 1150 3972 
Q 853 3972 728 3928 
Q 566 3869 450 3700 
Q 334 3531 313 3244 
L 194 3244 
L 244 4238 
L 3703 4238 
z
" transform="scale(0.015625)"/>
      <path id="TimesNewRomanPSMT-72" d="M 1038 2947 
L 1038 2303 
Q 1397 2947 1775 2947 
Q 1947 2947 2059 2842 
Q 2172 2738 2172 2600 
Q 2172 2478 2090 2393 
Q 2009 2309 1897 2309 
Q 1788 2309 1652 2417 
Q 1516 2525 1450 2525 
Q 1394 2525 1328 2463 
Q 1188 2334 1038 2041 
L 1038 669 
Q 1038 431 1097 309 
Q 1138 225 1241 169 
Q 1344 113 1538 113 
L 1538 0 
L 72 0 
L 72 113 
Q 291 113 397 181 
Q 475 231 506 341 
Q 522 394 522 644 
L 522 1753 
Q 522 2253 501 2348 
Q 481 2444 426 2487 
Q 372 2531 291 2531 
Q 194 2531 72 2484 
L 41 2597 
L 906 2947 
L 1038 2947 
z
" transform="scale(0.015625)"/>
      <path id="TimesNewRomanPSMT-75" d="M 2709 2863 
L 2709 1128 
Q 2709 631 2732 520 
Q 2756 409 2807 365 
Q 2859 322 2928 322 
Q 3025 322 3147 375 
L 3191 266 
L 2334 -88 
L 2194 -88 
L 2194 519 
Q 1825 119 1631 15 
Q 1438 -88 1222 -88 
Q 981 -88 804 51 
Q 628 191 559 409 
Q 491 628 491 1028 
L 491 2306 
Q 491 2509 447 2587 
Q 403 2666 317 2708 
Q 231 2750 6 2747 
L 6 2863 
L 1009 2863 
L 1009 947 
Q 1009 547 1148 422 
Q 1288 297 1484 297 
Q 1619 297 1789 381 
Q 1959 466 2194 703 
L 2194 2325 
Q 2194 2569 2105 2655 
Q 2016 2741 1734 2747 
L 1734 2863 
L 2709 2863 
z
" transform="scale(0.015625)"/>
      <path id="TimesNewRomanPSMT-74" d="M 1031 3803 
L 1031 2863 
L 1700 2863 
L 1700 2644 
L 1031 2644 
L 1031 788 
Q 1031 509 1111 412 
Q 1191 316 1316 316 
Q 1419 316 1516 380 
Q 1613 444 1666 569 
L 1788 569 
Q 1678 263 1478 108 
Q 1278 -47 1066 -47 
Q 922 -47 784 33 
Q 647 113 581 261 
Q 516 409 516 719 
L 516 2644 
L 63 2644 
L 63 2747 
Q 234 2816 414 2980 
Q 594 3144 734 3369 
Q 806 3488 934 3803 
L 1031 3803 
z
" transform="scale(0.015625)"/>
      <path id="TimesNewRomanPSMT-68" d="M 1041 4444 
L 1041 2350 
Q 1388 2731 1591 2839 
Q 1794 2947 1997 2947 
Q 2241 2947 2416 2812 
Q 2591 2678 2675 2391 
Q 2734 2191 2734 1659 
L 2734 647 
Q 2734 375 2778 275 
Q 2809 200 2884 156 
Q 2959 113 3159 113 
L 3159 0 
L 1753 0 
L 1753 113 
L 1819 113 
Q 2019 113 2097 173 
Q 2175 234 2206 353 
Q 2216 403 2216 647 
L 2216 1659 
Q 2216 2128 2167 2275 
Q 2119 2422 2012 2495 
Q 1906 2569 1756 2569 
Q 1603 2569 1437 2487 
Q 1272 2406 1041 2159 
L 1041 647 
Q 1041 353 1073 281 
Q 1106 209 1195 161 
Q 1284 113 1503 113 
L 1503 0 
L 84 0 
L 84 113 
Q 275 113 384 172 
Q 447 203 484 290 
Q 522 378 522 647 
L 522 3238 
Q 522 3728 498 3840 
Q 475 3953 426 3993 
Q 378 4034 297 4034 
Q 231 4034 84 3984 
L 41 4094 
L 897 4444 
L 1041 4444 
z
" transform="scale(0.015625)"/>
      <path id="TimesNewRomanPSMT-66" d="M 1319 2638 
L 1319 756 
Q 1319 356 1406 250 
Q 1522 113 1716 113 
L 1975 113 
L 1975 0 
L 266 0 
L 266 113 
L 394 113 
Q 519 113 622 175 
Q 725 238 764 344 
Q 803 450 803 756 
L 803 2638 
L 247 2638 
L 247 2863 
L 803 2863 
L 803 3050 
Q 803 3478 940 3775 
Q 1078 4072 1361 4255 
Q 1644 4438 1997 4438 
Q 2325 4438 2600 4225 
Q 2781 4084 2781 3909 
Q 2781 3816 2700 3733 
Q 2619 3650 2525 3650 
Q 2453 3650 2373 3701 
Q 2294 3753 2178 3923 
Q 2063 4094 1966 4153 
Q 1869 4213 1750 4213 
Q 1606 4213 1506 4136 
Q 1406 4059 1362 3898 
Q 1319 3738 1319 3069 
L 1319 2863 
L 2056 2863 
L 2056 2638 
L 1319 2638 
z
" transform="scale(0.015625)"/>
      <path id="TimesNewRomanPSMT-6c" d="M 1184 4444 
L 1184 647 
Q 1184 378 1223 290 
Q 1263 203 1344 158 
Q 1425 113 1647 113 
L 1647 0 
L 244 0 
L 244 113 
Q 441 113 512 153 
Q 584 194 625 287 
Q 666 381 666 647 
L 666 3247 
Q 666 3731 644 3842 
Q 622 3953 573 3993 
Q 525 4034 450 4034 
Q 369 4034 244 3984 
L 191 4094 
L 1044 4444 
L 1184 4444 
z
" transform="scale(0.015625)"/>
      <path id="TimesNewRomanPSMT-51" d="M 2819 -47 
Q 3138 -597 3508 -856 
Q 3878 -1116 4350 -1153 
L 4350 -1253 
Q 3919 -1238 3428 -1080 
Q 2938 -922 2498 -642 
Q 2059 -363 1741 -47 
Q 1291 134 1028 338 
Q 647 641 436 1083 
Q 225 1525 225 2128 
Q 225 3078 840 3706 
Q 1456 4334 2331 4334 
Q 3163 4334 3770 3704 
Q 4378 3075 4378 2116 
Q 4378 1338 3945 750 
Q 3513 163 2819 -47 
z
M 2294 4094 
Q 1725 4094 1378 3688 
Q 941 3178 941 2128 
Q 941 1100 1384 544 
Q 1728 116 2294 116 
Q 2881 116 3241 544 
Q 3663 1050 3663 2038 
Q 3663 2797 3431 3316 
Q 3253 3716 2958 3905 
Q 2663 4094 2294 4094 
z
" transform="scale(0.015625)"/>
      <path id="TimesNewRomanPSMT-41" d="M 2928 1419 
L 1288 1419 
L 1000 750 
Q 894 503 894 381 
Q 894 284 986 211 
Q 1078 138 1384 116 
L 1384 0 
L 50 0 
L 50 116 
Q 316 163 394 238 
Q 553 388 747 847 
L 2238 4334 
L 2347 4334 
L 3822 809 
Q 4000 384 4145 257 
Q 4291 131 4550 116 
L 4550 0 
L 2878 0 
L 2878 116 
Q 3131 128 3220 200 
Q 3309 272 3309 375 
Q 3309 513 3184 809 
L 2928 1419 
z
M 2841 1650 
L 2122 3363 
L 1384 1650 
L 2841 1650 
z
" transform="scale(0.015625)"/>
     </defs>
     <use xlink:href="#TimesNewRomanPSMT-54"/>
     <use xlink:href="#TimesNewRomanPSMT-72" x="57.583984"/>
     <use xlink:href="#TimesNewRomanPSMT-75" x="90.884766"/>
     <use xlink:href="#TimesNewRomanPSMT-74" x="140.884766"/>
     <use xlink:href="#TimesNewRomanPSMT-68" x="168.667969"/>
     <use xlink:href="#TimesNewRomanPSMT-66" x="218.667969"/>
     <use xlink:href="#TimesNewRomanPSMT-75" x="251.96875"/>
     <use xlink:href="#TimesNewRomanPSMT-6c" x="301.96875"/>
     <use xlink:href="#TimesNewRomanPSMT-51" x="329.751953"/>
     <use xlink:href="#TimesNewRomanPSMT-41" x="401.96875"/>
    </g>
   </g>
   <g id="text_30">
    <!-- ARC-C -->
    <g transform="translate(234.451924 55.830432) scale(0.14 -0.14)">
     <defs>
      <path id="TimesNewRomanPSMT-52" d="M 4325 0 
L 3194 0 
L 1759 1981 
Q 1600 1975 1500 1975 
Q 1459 1975 1412 1976 
Q 1366 1978 1316 1981 
L 1316 750 
Q 1316 350 1403 253 
Q 1522 116 1759 116 
L 1925 116 
L 1925 0 
L 109 0 
L 109 116 
L 269 116 
Q 538 116 653 291 
Q 719 388 719 750 
L 719 3488 
Q 719 3888 631 3984 
Q 509 4122 269 4122 
L 109 4122 
L 109 4238 
L 1653 4238 
Q 2328 4238 2648 4139 
Q 2969 4041 3192 3777 
Q 3416 3513 3416 3147 
Q 3416 2756 3161 2468 
Q 2906 2181 2372 2063 
L 3247 847 
Q 3547 428 3762 290 
Q 3978 153 4325 116 
L 4325 0 
z
M 1316 2178 
Q 1375 2178 1419 2176 
Q 1463 2175 1491 2175 
Q 2097 2175 2405 2437 
Q 2713 2700 2713 3106 
Q 2713 3503 2464 3751 
Q 2216 4000 1806 4000 
Q 1625 4000 1316 3941 
L 1316 2178 
z
" transform="scale(0.015625)"/>
      <path id="TimesNewRomanPSMT-43" d="M 3853 4334 
L 3950 2894 
L 3853 2894 
Q 3659 3541 3300 3825 
Q 2941 4109 2438 4109 
Q 2016 4109 1675 3895 
Q 1334 3681 1139 3212 
Q 944 2744 944 2047 
Q 944 1472 1128 1050 
Q 1313 628 1683 403 
Q 2053 178 2528 178 
Q 2941 178 3256 354 
Q 3572 531 3950 1056 
L 4047 994 
Q 3728 428 3303 165 
Q 2878 -97 2294 -97 
Q 1241 -97 663 684 
Q 231 1266 231 2053 
Q 231 2688 515 3219 
Q 800 3750 1298 4042 
Q 1797 4334 2388 4334 
Q 2847 4334 3294 4109 
Q 3425 4041 3481 4041 
Q 3566 4041 3628 4100 
Q 3709 4184 3744 4334 
L 3853 4334 
z
" transform="scale(0.015625)"/>
      <path id="TimesNewRomanPSMT-2d" d="M 259 1672 
L 1875 1672 
L 1875 1200 
L 259 1200 
L 259 1672 
z
" transform="scale(0.015625)"/>
     </defs>
     <use xlink:href="#TimesNewRomanPSMT-41"/>
     <use xlink:href="#TimesNewRomanPSMT-52" x="72.216797"/>
     <use xlink:href="#TimesNewRomanPSMT-43" x="138.916016"/>
     <use xlink:href="#TimesNewRomanPSMT-2d" x="205.615234"/>
     <use xlink:href="#TimesNewRomanPSMT-43" x="238.916016"/>
    </g>
   </g>
   <g id="text_31">
    <!-- GSM8K -->
    <g transform="translate(113.852188 76.683861) scale(0.14 -0.14)">
     <defs>
      <path id="TimesNewRomanPSMT-47" d="M 3928 4334 
L 4038 2997 
L 3928 2997 
Q 3763 3497 3500 3750 
Q 3122 4116 2528 4116 
Q 1719 4116 1297 3475 
Q 944 2934 944 2188 
Q 944 1581 1178 1081 
Q 1413 581 1792 348 
Q 2172 116 2572 116 
Q 2806 116 3025 175 
Q 3244 234 3447 350 
L 3447 1575 
Q 3447 1894 3398 1992 
Q 3350 2091 3248 2142 
Q 3147 2194 2891 2194 
L 2891 2313 
L 4531 2313 
L 4531 2194 
L 4453 2194 
Q 4209 2194 4119 2031 
Q 4056 1916 4056 1575 
L 4056 278 
Q 3697 84 3347 -6 
Q 2997 -97 2569 -97 
Q 1341 -97 703 691 
Q 225 1281 225 2053 
Q 225 2613 494 3125 
Q 813 3734 1369 4063 
Q 1834 4334 2469 4334 
Q 2700 4334 2889 4296 
Q 3078 4259 3425 4131 
Q 3600 4066 3659 4066 
Q 3719 4066 3761 4120 
Q 3803 4175 3813 4334 
L 3928 4334 
z
" transform="scale(0.015625)"/>
      <path id="TimesNewRomanPSMT-53" d="M 2934 4334 
L 2934 2869 
L 2819 2869 
Q 2763 3291 2617 3541 
Q 2472 3791 2203 3937 
Q 1934 4084 1647 4084 
Q 1322 4084 1109 3886 
Q 897 3688 897 3434 
Q 897 3241 1031 3081 
Q 1225 2847 1953 2456 
Q 2547 2138 2764 1967 
Q 2981 1797 3098 1565 
Q 3216 1334 3216 1081 
Q 3216 600 2842 251 
Q 2469 -97 1881 -97 
Q 1697 -97 1534 -69 
Q 1438 -53 1133 45 
Q 828 144 747 144 
Q 669 144 623 97 
Q 578 50 556 -97 
L 441 -97 
L 441 1356 
L 556 1356 
Q 638 900 775 673 
Q 913 447 1195 297 
Q 1478 147 1816 147 
Q 2206 147 2432 353 
Q 2659 559 2659 841 
Q 2659 997 2573 1156 
Q 2488 1316 2306 1453 
Q 2184 1547 1640 1851 
Q 1097 2156 867 2337 
Q 638 2519 519 2737 
Q 400 2956 400 3219 
Q 400 3675 750 4004 
Q 1100 4334 1641 4334 
Q 1978 4334 2356 4169 
Q 2531 4091 2603 4091 
Q 2684 4091 2736 4139 
Q 2788 4188 2819 4334 
L 2934 4334 
z
" transform="scale(0.015625)"/>
      <path id="TimesNewRomanPSMT-38" d="M 1228 2134 
Q 725 2547 579 2797 
Q 434 3047 434 3316 
Q 434 3728 753 4026 
Q 1072 4325 1600 4325 
Q 2113 4325 2425 4047 
Q 2738 3769 2738 3413 
Q 2738 3175 2569 2928 
Q 2400 2681 1866 2347 
Q 2416 1922 2594 1678 
Q 2831 1359 2831 1006 
Q 2831 559 2490 242 
Q 2150 -75 1597 -75 
Q 994 -75 656 303 
Q 388 606 388 966 
Q 388 1247 577 1523 
Q 766 1800 1228 2134 
z
M 1719 2469 
Q 2094 2806 2194 3001 
Q 2294 3197 2294 3444 
Q 2294 3772 2109 3958 
Q 1925 4144 1606 4144 
Q 1288 4144 1088 3959 
Q 888 3775 888 3528 
Q 888 3366 970 3203 
Q 1053 3041 1206 2894 
L 1719 2469 
z
M 1375 2016 
Q 1116 1797 991 1539 
Q 866 1281 866 981 
Q 866 578 1086 336 
Q 1306 94 1647 94 
Q 1984 94 2187 284 
Q 2391 475 2391 747 
Q 2391 972 2272 1150 
Q 2050 1481 1375 2016 
z
" transform="scale(0.015625)"/>
      <path id="TimesNewRomanPSMT-4b" d="M 1913 2350 
L 3475 797 
Q 3859 413 4131 273 
Q 4403 134 4675 116 
L 4675 0 
L 2659 0 
L 2659 116 
Q 2841 116 2920 177 
Q 3000 238 3000 313 
Q 3000 388 2970 447 
Q 2941 506 2775 669 
L 1313 2116 
L 1313 750 
Q 1313 428 1353 325 
Q 1384 247 1484 191 
Q 1619 116 1769 116 
L 1913 116 
L 1913 0 
L 106 0 
L 106 116 
L 256 116 
Q 519 116 638 269 
Q 713 369 713 750 
L 713 3488 
Q 713 3809 672 3916 
Q 641 3991 544 4047 
Q 406 4122 256 4122 
L 106 4122 
L 106 4238 
L 1913 4238 
L 1913 4122 
L 1769 4122 
Q 1622 4122 1484 4050 
Q 1388 4000 1350 3900 
Q 1313 3800 1313 3488 
L 1313 2191 
Q 1375 2250 1741 2588 
Q 2669 3438 2863 3722 
Q 2947 3847 2947 3941 
Q 2947 4013 2881 4067 
Q 2816 4122 2659 4122 
L 2563 4122 
L 2563 4238 
L 4119 4238 
L 4119 4122 
Q 3981 4119 3868 4084 
Q 3756 4050 3593 3951 
Q 3431 3853 3194 3634 
Q 3125 3572 2559 2994 
L 1913 2350 
z
" transform="scale(0.015625)"/>
     </defs>
     <use xlink:href="#TimesNewRomanPSMT-47"/>
     <use xlink:href="#TimesNewRomanPSMT-53" x="72.216797"/>
     <use xlink:href="#TimesNewRomanPSMT-4d" x="127.832031"/>
     <use xlink:href="#TimesNewRomanPSMT-38" x="216.748047"/>
     <use xlink:href="#TimesNewRomanPSMT-4b" x="266.748047"/>
    </g>
   </g>
   <g id="text_32">
    <!-- Math -->
    <g transform="translate(45.611001 168.678225) scale(0.14 -0.14)">
     <defs>
      <path id="TimesNewRomanPSMT-61" d="M 1822 413 
Q 1381 72 1269 19 
Q 1100 -59 909 -59 
Q 613 -59 420 144 
Q 228 347 228 678 
Q 228 888 322 1041 
Q 450 1253 767 1440 
Q 1084 1628 1822 1897 
L 1822 2009 
Q 1822 2438 1686 2597 
Q 1550 2756 1291 2756 
Q 1094 2756 978 2650 
Q 859 2544 859 2406 
L 866 2225 
Q 866 2081 792 2003 
Q 719 1925 600 1925 
Q 484 1925 411 2006 
Q 338 2088 338 2228 
Q 338 2497 613 2722 
Q 888 2947 1384 2947 
Q 1766 2947 2009 2819 
Q 2194 2722 2281 2516 
Q 2338 2381 2338 1966 
L 2338 994 
Q 2338 584 2353 492 
Q 2369 400 2405 369 
Q 2441 338 2488 338 
Q 2538 338 2575 359 
Q 2641 400 2828 588 
L 2828 413 
Q 2478 -56 2159 -56 
Q 2006 -56 1915 50 
Q 1825 156 1822 413 
z
M 1822 616 
L 1822 1706 
Q 1350 1519 1213 1441 
Q 966 1303 859 1153 
Q 753 1003 753 825 
Q 753 600 887 451 
Q 1022 303 1197 303 
Q 1434 303 1822 616 
z
" transform="scale(0.015625)"/>
     </defs>
     <use xlink:href="#TimesNewRomanPSMT-4d"/>
     <use xlink:href="#TimesNewRomanPSMT-61" x="88.916016"/>
     <use xlink:href="#TimesNewRomanPSMT-74" x="133.300781"/>
     <use xlink:href="#TimesNewRomanPSMT-68" x="161.083984"/>
    </g>
   </g>
   <g id="text_33">
    <!-- HumanEval -->
    <g transform="translate(26.95272 288.768338) scale(0.14 -0.14)">
     <defs>
      <path id="TimesNewRomanPSMT-48" d="M 1316 2272 
L 3284 2272 
L 3284 3484 
Q 3284 3809 3244 3913 
Q 3213 3991 3113 4047 
Q 2978 4122 2828 4122 
L 2678 4122 
L 2678 4238 
L 4491 4238 
L 4491 4122 
L 4341 4122 
Q 4191 4122 4056 4050 
Q 3956 4000 3920 3898 
Q 3884 3797 3884 3484 
L 3884 750 
Q 3884 428 3925 325 
Q 3956 247 4053 191 
Q 4191 116 4341 116 
L 4491 116 
L 4491 0 
L 2678 0 
L 2678 116 
L 2828 116 
Q 3088 116 3206 269 
Q 3284 369 3284 750 
L 3284 2041 
L 1316 2041 
L 1316 750 
Q 1316 428 1356 325 
Q 1388 247 1488 191 
Q 1622 116 1772 116 
L 1925 116 
L 1925 0 
L 109 0 
L 109 116 
L 259 116 
Q 522 116 641 269 
Q 716 369 716 750 
L 716 3484 
Q 716 3809 675 3913 
Q 644 3991 547 4047 
Q 409 4122 259 4122 
L 109 4122 
L 109 4238 
L 1925 4238 
L 1925 4122 
L 1772 4122 
Q 1622 4122 1488 4050 
Q 1391 4000 1353 3898 
Q 1316 3797 1316 3484 
L 1316 2272 
z
" transform="scale(0.015625)"/>
      <path id="TimesNewRomanPSMT-6d" d="M 1050 2338 
Q 1363 2650 1419 2697 
Q 1559 2816 1721 2881 
Q 1884 2947 2044 2947 
Q 2313 2947 2506 2790 
Q 2700 2634 2766 2338 
Q 3088 2713 3309 2830 
Q 3531 2947 3766 2947 
Q 3994 2947 4170 2830 
Q 4347 2713 4450 2447 
Q 4519 2266 4519 1878 
L 4519 647 
Q 4519 378 4559 278 
Q 4591 209 4675 161 
Q 4759 113 4950 113 
L 4950 0 
L 3538 0 
L 3538 113 
L 3597 113 
Q 3781 113 3884 184 
Q 3956 234 3988 344 
Q 4000 397 4000 647 
L 4000 1878 
Q 4000 2228 3916 2372 
Q 3794 2572 3525 2572 
Q 3359 2572 3192 2489 
Q 3025 2406 2788 2181 
L 2781 2147 
L 2788 2013 
L 2788 647 
Q 2788 353 2820 281 
Q 2853 209 2943 161 
Q 3034 113 3253 113 
L 3253 0 
L 1806 0 
L 1806 113 
Q 2044 113 2133 169 
Q 2222 225 2256 338 
Q 2272 391 2272 647 
L 2272 1878 
Q 2272 2228 2169 2381 
Q 2031 2581 1784 2581 
Q 1616 2581 1450 2491 
Q 1191 2353 1050 2181 
L 1050 647 
Q 1050 366 1089 281 
Q 1128 197 1204 155 
Q 1281 113 1516 113 
L 1516 0 
L 100 0 
L 100 113 
Q 297 113 375 155 
Q 453 197 493 289 
Q 534 381 534 647 
L 534 1741 
Q 534 2213 506 2350 
Q 484 2453 437 2492 
Q 391 2531 309 2531 
Q 222 2531 100 2484 
L 53 2597 
L 916 2947 
L 1050 2947 
L 1050 2338 
z
" transform="scale(0.015625)"/>
      <path id="TimesNewRomanPSMT-6e" d="M 1034 2341 
Q 1538 2947 1994 2947 
Q 2228 2947 2397 2830 
Q 2566 2713 2666 2444 
Q 2734 2256 2734 1869 
L 2734 647 
Q 2734 375 2778 278 
Q 2813 200 2889 156 
Q 2966 113 3172 113 
L 3172 0 
L 1756 0 
L 1756 113 
L 1816 113 
Q 2016 113 2095 173 
Q 2175 234 2206 353 
Q 2219 400 2219 647 
L 2219 1819 
Q 2219 2209 2117 2386 
Q 2016 2563 1775 2563 
Q 1403 2563 1034 2156 
L 1034 647 
Q 1034 356 1069 288 
Q 1113 197 1189 155 
Q 1266 113 1500 113 
L 1500 0 
L 84 0 
L 84 113 
L 147 113 
Q 366 113 442 223 
Q 519 334 519 647 
L 519 1709 
Q 519 2225 495 2337 
Q 472 2450 423 2490 
Q 375 2531 294 2531 
Q 206 2531 84 2484 
L 38 2597 
L 900 2947 
L 1034 2947 
L 1034 2341 
z
" transform="scale(0.015625)"/>
      <path id="TimesNewRomanPSMT-45" d="M 1338 4006 
L 1338 2331 
L 2269 2331 
Q 2631 2331 2753 2441 
Q 2916 2584 2934 2947 
L 3050 2947 
L 3050 1472 
L 2934 1472 
Q 2891 1781 2847 1869 
Q 2791 1978 2662 2040 
Q 2534 2103 2269 2103 
L 1338 2103 
L 1338 706 
Q 1338 425 1363 364 
Q 1388 303 1450 267 
Q 1513 231 1688 231 
L 2406 231 
Q 2766 231 2928 281 
Q 3091 331 3241 478 
Q 3434 672 3638 1063 
L 3763 1063 
L 3397 0 
L 131 0 
L 131 116 
L 281 116 
Q 431 116 566 188 
Q 666 238 702 338 
Q 738 438 738 747 
L 738 3500 
Q 738 3903 656 3997 
Q 544 4122 281 4122 
L 131 4122 
L 131 4238 
L 3397 4238 
L 3444 3309 
L 3322 3309 
Q 3256 3644 3176 3769 
Q 3097 3894 2941 3959 
Q 2816 4006 2500 4006 
L 1338 4006 
z
" transform="scale(0.015625)"/>
      <path id="TimesNewRomanPSMT-76" d="M 53 2863 
L 1400 2863 
L 1400 2747 
L 1313 2747 
Q 1191 2747 1127 2687 
Q 1063 2628 1063 2528 
Q 1063 2419 1128 2269 
L 1794 688 
L 2463 2328 
Q 2534 2503 2534 2594 
Q 2534 2638 2509 2666 
Q 2475 2713 2422 2730 
Q 2369 2747 2206 2747 
L 2206 2863 
L 3141 2863 
L 3141 2747 
Q 2978 2734 2916 2681 
Q 2806 2588 2719 2369 
L 1703 -88 
L 1575 -88 
L 553 2328 
Q 484 2497 421 2570 
Q 359 2644 263 2694 
Q 209 2722 53 2747 
L 53 2863 
z
" transform="scale(0.015625)"/>
     </defs>
     <use xlink:href="#TimesNewRomanPSMT-48"/>
     <use xlink:href="#TimesNewRomanPSMT-75" x="72.216797"/>
     <use xlink:href="#TimesNewRomanPSMT-6d" x="122.216797"/>
     <use xlink:href="#TimesNewRomanPSMT-61" x="200"/>
     <use xlink:href="#TimesNewRomanPSMT-6e" x="244.384766"/>
     <use xlink:href="#TimesNewRomanPSMT-45" x="294.384766"/>
     <use xlink:href="#TimesNewRomanPSMT-76" x="355.46875"/>
     <use xlink:href="#TimesNewRomanPSMT-61" x="405.46875"/>
     <use xlink:href="#TimesNewRomanPSMT-6c" x="449.853516"/>
    </g>
   </g>
   <g id="text_34">
    <!-- MBPP -->
    <g transform="translate(118.900937 380.762701) scale(0.14 -0.14)">
     <defs>
      <path id="TimesNewRomanPSMT-42" d="M 2956 2163 
Q 3397 2069 3616 1863 
Q 3919 1575 3919 1159 
Q 3919 844 3719 555 
Q 3519 266 3170 133 
Q 2822 0 2106 0 
L 106 0 
L 106 116 
L 266 116 
Q 531 116 647 284 
Q 719 394 719 750 
L 719 3488 
Q 719 3881 628 3984 
Q 506 4122 266 4122 
L 106 4122 
L 106 4238 
L 1938 4238 
Q 2450 4238 2759 4163 
Q 3228 4050 3475 3764 
Q 3722 3478 3722 3106 
Q 3722 2788 3528 2536 
Q 3334 2284 2956 2163 
z
M 1319 2331 
Q 1434 2309 1582 2298 
Q 1731 2288 1909 2288 
Q 2366 2288 2595 2386 
Q 2825 2484 2947 2687 
Q 3069 2891 3069 3131 
Q 3069 3503 2766 3765 
Q 2463 4028 1881 4028 
Q 1569 4028 1319 3959 
L 1319 2331 
z
M 1319 306 
Q 1681 222 2034 222 
Q 2600 222 2897 476 
Q 3194 731 3194 1106 
Q 3194 1353 3059 1581 
Q 2925 1809 2622 1940 
Q 2319 2072 1872 2072 
Q 1678 2072 1540 2065 
Q 1403 2059 1319 2044 
L 1319 306 
z
" transform="scale(0.015625)"/>
      <path id="TimesNewRomanPSMT-50" d="M 1313 1984 
L 1313 750 
Q 1313 350 1400 253 
Q 1519 116 1759 116 
L 1922 116 
L 1922 0 
L 106 0 
L 106 116 
L 266 116 
Q 534 116 650 291 
Q 713 388 713 750 
L 713 3488 
Q 713 3888 628 3984 
Q 506 4122 266 4122 
L 106 4122 
L 106 4238 
L 1659 4238 
Q 2228 4238 2556 4120 
Q 2884 4003 3109 3725 
Q 3334 3447 3334 3066 
Q 3334 2547 2992 2222 
Q 2650 1897 2025 1897 
Q 1872 1897 1694 1919 
Q 1516 1941 1313 1984 
z
M 1313 2163 
Q 1478 2131 1606 2115 
Q 1734 2100 1825 2100 
Q 2150 2100 2386 2351 
Q 2622 2603 2622 3003 
Q 2622 3278 2509 3514 
Q 2397 3750 2190 3867 
Q 1984 3984 1722 3984 
Q 1563 3984 1313 3925 
L 1313 2163 
z
" transform="scale(0.015625)"/>
     </defs>
     <use xlink:href="#TimesNewRomanPSMT-4d"/>
     <use xlink:href="#TimesNewRomanPSMT-42" x="88.916016"/>
     <use xlink:href="#TimesNewRomanPSMT-50" x="155.615234"/>
     <use xlink:href="#TimesNewRomanPSMT-50" x="211.230469"/>
    </g>
   </g>
   <g id="text_35">
    <!-- CMMLU -->
    <g transform="translate(229.396612 401.61613) scale(0.14 -0.14)">
     <use xlink:href="#TimesNewRomanPSMT-43"/>
     <use xlink:href="#TimesNewRomanPSMT-4d" x="66.699219"/>
     <use xlink:href="#TimesNewRomanPSMT-4d" x="155.615234"/>
     <use xlink:href="#TimesNewRomanPSMT-4c" x="244.53125"/>
     <use xlink:href="#TimesNewRomanPSMT-55" x="305.615234"/>
    </g>
   </g>
   <g id="text_36">
    <!-- C-Eval -->
    <g transform="translate(340.019262 341.571074) scale(0.14 -0.14)">
     <use xlink:href="#TimesNewRomanPSMT-43"/>
     <use xlink:href="#TimesNewRomanPSMT-2d" x="66.699219"/>
     <use xlink:href="#TimesNewRomanPSMT-45" x="100"/>
     <use xlink:href="#TimesNewRomanPSMT-76" x="161.083984"/>
     <use xlink:href="#TimesNewRomanPSMT-61" x="211.083984"/>
     <use xlink:href="#TimesNewRomanPSMT-6c" x="255.46875"/>
    </g>
   </g>
   <g id="patch_6">
    <path d="M 446.89286 216.276282 
Q 446.98142 219.817956 447.014084 221.124261 
" style="fill: none; stroke: #000000; stroke-width: 2; stroke-linecap: round"/>
    <path d="M 448.91347 217.075516 
L 447.014084 221.124261 
L 444.91472 217.175506 
" style="fill: none; stroke: #000000; stroke-width: 2; stroke-linecap: round"/>
   </g>
   <g id="patch_7">
    <path d="M 272.774493 8.770093 
Q 269.302003 8.067873 268.021216 7.808867 
" style="fill: none; stroke: #000000; stroke-width: 2; stroke-linecap: round"/>
    <path d="M 271.54543 10.562032 
L 268.021216 7.808867 
L 272.338276 6.641395 
" style="fill: none; stroke: #000000; stroke-width: 2; stroke-linecap: round"/>
   </g>
   <g id="text_37">
    <!-- General Tasks -->
    <g transform="translate(370.264753 44.65837) rotate(-310) scale(0.16 -0.16)">
     <defs>
      <path id="TimesNewRomanPSMT-65" d="M 681 1784 
Q 678 1147 991 784 
Q 1303 422 1725 422 
Q 2006 422 2214 576 
Q 2422 731 2563 1106 
L 2659 1044 
Q 2594 616 2278 264 
Q 1963 -88 1488 -88 
Q 972 -88 605 314 
Q 238 716 238 1394 
Q 238 2128 614 2539 
Q 991 2950 1559 2950 
Q 2041 2950 2350 2633 
Q 2659 2316 2659 1784 
L 681 1784 
z
M 681 1966 
L 2006 1966 
Q 1991 2241 1941 2353 
Q 1863 2528 1708 2628 
Q 1553 2728 1384 2728 
Q 1125 2728 920 2526 
Q 716 2325 681 1966 
z
" transform="scale(0.015625)"/>
      <path id="TimesNewRomanPSMT-20" transform="scale(0.015625)"/>
      <path id="TimesNewRomanPSMT-73" d="M 2050 2947 
L 2050 1972 
L 1947 1972 
Q 1828 2431 1642 2597 
Q 1456 2763 1169 2763 
Q 950 2763 815 2647 
Q 681 2531 681 2391 
Q 681 2216 781 2091 
Q 878 1963 1175 1819 
L 1631 1597 
Q 2266 1288 2266 781 
Q 2266 391 1970 151 
Q 1675 -88 1309 -88 
Q 1047 -88 709 6 
Q 606 38 541 38 
Q 469 38 428 -44 
L 325 -44 
L 325 978 
L 428 978 
Q 516 541 762 319 
Q 1009 97 1316 97 
Q 1531 97 1667 223 
Q 1803 350 1803 528 
Q 1803 744 1651 891 
Q 1500 1038 1047 1263 
Q 594 1488 453 1669 
Q 313 1847 313 2119 
Q 313 2472 555 2709 
Q 797 2947 1181 2947 
Q 1350 2947 1591 2875 
Q 1750 2828 1803 2828 
Q 1853 2828 1881 2850 
Q 1909 2872 1947 2947 
L 2050 2947 
z
" transform="scale(0.015625)"/>
      <path id="TimesNewRomanPSMT-6b" d="M 1047 4444 
L 1047 1597 
L 1775 2259 
Q 2006 2472 2044 2528 
Q 2069 2566 2069 2603 
Q 2069 2666 2017 2711 
Q 1966 2756 1847 2763 
L 1847 2863 
L 3091 2863 
L 3091 2763 
Q 2834 2756 2664 2684 
Q 2494 2613 2291 2428 
L 1556 1750 
L 2291 822 
Q 2597 438 2703 334 
Q 2853 188 2966 144 
Q 3044 113 3238 113 
L 3238 0 
L 1847 0 
L 1847 113 
Q 1966 116 2008 148 
Q 2050 181 2050 241 
Q 2050 313 1925 472 
L 1047 1594 
L 1047 644 
Q 1047 366 1086 278 
Q 1125 191 1197 153 
Q 1269 116 1509 113 
L 1509 0 
L 53 0 
L 53 113 
Q 272 113 381 166 
Q 447 200 481 272 
Q 528 375 528 628 
L 528 3234 
Q 528 3731 506 3842 
Q 484 3953 434 3995 
Q 384 4038 303 4038 
Q 238 4038 106 3984 
L 53 4094 
L 903 4444 
L 1047 4444 
z
" transform="scale(0.015625)"/>
     </defs>
     <use xlink:href="#TimesNewRomanPSMT-47"/>
     <use xlink:href="#TimesNewRomanPSMT-65" x="72.216797"/>
     <use xlink:href="#TimesNewRomanPSMT-6e" x="116.601562"/>
     <use xlink:href="#TimesNewRomanPSMT-65" x="166.601562"/>
     <use xlink:href="#TimesNewRomanPSMT-72" x="210.986328"/>
     <use xlink:href="#TimesNewRomanPSMT-61" x="244.287109"/>
     <use xlink:href="#TimesNewRomanPSMT-6c" x="288.671875"/>
     <use xlink:href="#TimesNewRomanPSMT-20" x="316.455078"/>
     <use xlink:href="#TimesNewRomanPSMT-54" x="339.705078"/>
     <use xlink:href="#TimesNewRomanPSMT-61" x="393.789062"/>
     <use xlink:href="#TimesNewRomanPSMT-73" x="438.173828"/>
     <use xlink:href="#TimesNewRomanPSMT-6b" x="477.089844"/>
     <use xlink:href="#TimesNewRomanPSMT-73" x="527.089844"/>
    </g>
   </g>
   <g id="patch_8">
    <path d="M 106.72684 38.048775 
Q 109.749739 36.201242 110.8647 35.519801 
" style="fill: none; stroke: #000000; stroke-width: 2; stroke-linecap: round"/>
    <path d="M 106.408692 35.899258 
L 110.8647 35.519801 
L 108.49466 39.312282 
" style="fill: none; stroke: #000000; stroke-width: 2; stroke-linecap: round"/>
   </g>
   <g id="patch_9">
    <path d="M 20.294021 141.055397 
Q 18.999478 144.353193 18.522 145.569546 
" style="fill: none; stroke: #000000; stroke-width: 2; stroke-linecap: round"/>
    <path d="M 21.845312 142.576955 
L 18.522 145.569546 
L 18.121914 141.115342 
" style="fill: none; stroke: #000000; stroke-width: 2; stroke-linecap: round"/>
   </g>
   <g id="text_38">
    <!-- Mathematics -->
    <g transform="translate(24.786626 111.001649) rotate(-50) scale(0.16 -0.16)">
     <defs>
      <path id="TimesNewRomanPSMT-69" d="M 928 4444 
Q 1059 4444 1151 4351 
Q 1244 4259 1244 4128 
Q 1244 3997 1151 3903 
Q 1059 3809 928 3809 
Q 797 3809 703 3903 
Q 609 3997 609 4128 
Q 609 4259 701 4351 
Q 794 4444 928 4444 
z
M 1188 2947 
L 1188 647 
Q 1188 378 1227 289 
Q 1266 200 1342 156 
Q 1419 113 1622 113 
L 1622 0 
L 231 0 
L 231 113 
Q 441 113 512 153 
Q 584 194 626 287 
Q 669 381 669 647 
L 669 1750 
Q 669 2216 641 2353 
Q 619 2453 572 2492 
Q 525 2531 444 2531 
Q 356 2531 231 2484 
L 188 2597 
L 1050 2947 
L 1188 2947 
z
" transform="scale(0.015625)"/>
      <path id="TimesNewRomanPSMT-63" d="M 2631 1088 
Q 2516 522 2178 217 
Q 1841 -88 1431 -88 
Q 944 -88 581 321 
Q 219 731 219 1428 
Q 219 2103 620 2525 
Q 1022 2947 1584 2947 
Q 2006 2947 2278 2723 
Q 2550 2500 2550 2259 
Q 2550 2141 2473 2067 
Q 2397 1994 2259 1994 
Q 2075 1994 1981 2113 
Q 1928 2178 1911 2362 
Q 1894 2547 1784 2644 
Q 1675 2738 1481 2738 
Q 1169 2738 978 2506 
Q 725 2200 725 1697 
Q 725 1184 976 792 
Q 1228 400 1656 400 
Q 1963 400 2206 609 
Q 2378 753 2541 1131 
L 2631 1088 
z
" transform="scale(0.015625)"/>
     </defs>
     <use xlink:href="#TimesNewRomanPSMT-4d"/>
     <use xlink:href="#TimesNewRomanPSMT-61" x="88.916016"/>
     <use xlink:href="#TimesNewRomanPSMT-74" x="133.300781"/>
     <use xlink:href="#TimesNewRomanPSMT-68" x="161.083984"/>
     <use xlink:href="#TimesNewRomanPSMT-65" x="211.083984"/>
     <use xlink:href="#TimesNewRomanPSMT-6d" x="255.46875"/>
     <use xlink:href="#TimesNewRomanPSMT-61" x="333.251953"/>
     <use xlink:href="#TimesNewRomanPSMT-74" x="377.636719"/>
     <use xlink:href="#TimesNewRomanPSMT-69" x="405.419922"/>
     <use xlink:href="#TimesNewRomanPSMT-63" x="433.203125"/>
     <use xlink:href="#TimesNewRomanPSMT-73" x="477.587891"/>
    </g>
   </g>
   <g id="patch_10">
    <path d="M 20.294021 309.664603 
Q 18.999478 306.366807 18.522 305.150454 
" style="fill: none; stroke: #000000; stroke-width: 2; stroke-linecap: round"/>
    <path d="M 18.121914 309.604658 
L 18.522 305.150454 
L 21.845312 308.143045 
" style="fill: none; stroke: #000000; stroke-width: 2; stroke-linecap: round"/>
   </g>
   <g id="patch_11">
    <path d="M 106.72684 412.671225 
Q 109.749739 414.518758 110.8647 415.200199 
" style="fill: none; stroke: #000000; stroke-width: 2; stroke-linecap: round"/>
    <path d="M 108.49466 411.407718 
L 110.8647 415.200199 
L 106.408692 414.820742 
" style="fill: none; stroke: #000000; stroke-width: 2; stroke-linecap: round"/>
   </g>
   <g id="text_39">
    <!-- Code -->
    <g transform="translate(34.604175 363.378077) rotate(-310) scale(0.16 -0.16)">
     <defs>
      <path id="TimesNewRomanPSMT-6f" d="M 1600 2947 
Q 2250 2947 2644 2453 
Q 2978 2031 2978 1484 
Q 2978 1100 2793 706 
Q 2609 313 2286 112 
Q 1963 -88 1566 -88 
Q 919 -88 538 428 
Q 216 863 216 1403 
Q 216 1797 411 2186 
Q 606 2575 925 2761 
Q 1244 2947 1600 2947 
z
M 1503 2744 
Q 1338 2744 1170 2645 
Q 1003 2547 900 2300 
Q 797 2053 797 1666 
Q 797 1041 1045 587 
Q 1294 134 1700 134 
Q 2003 134 2200 384 
Q 2397 634 2397 1244 
Q 2397 2006 2069 2444 
Q 1847 2744 1503 2744 
z
" transform="scale(0.015625)"/>
      <path id="TimesNewRomanPSMT-64" d="M 2222 322 
Q 2013 103 1813 7 
Q 1613 -88 1381 -88 
Q 913 -88 563 304 
Q 213 697 213 1313 
Q 213 1928 600 2439 
Q 988 2950 1597 2950 
Q 1975 2950 2222 2709 
L 2222 3238 
Q 2222 3728 2198 3840 
Q 2175 3953 2125 3993 
Q 2075 4034 2000 4034 
Q 1919 4034 1784 3984 
L 1744 4094 
L 2597 4444 
L 2738 4444 
L 2738 1134 
Q 2738 631 2761 520 
Q 2784 409 2836 365 
Q 2888 322 2956 322 
Q 3041 322 3181 375 
L 3216 266 
L 2366 -88 
L 2222 -88 
L 2222 322 
z
M 2222 541 
L 2222 2016 
Q 2203 2228 2109 2403 
Q 2016 2578 1861 2667 
Q 1706 2756 1559 2756 
Q 1284 2756 1069 2509 
Q 784 2184 784 1559 
Q 784 928 1059 592 
Q 1334 256 1672 256 
Q 1956 256 2222 541 
z
" transform="scale(0.015625)"/>
     </defs>
     <use xlink:href="#TimesNewRomanPSMT-43"/>
     <use xlink:href="#TimesNewRomanPSMT-6f" x="66.699219"/>
     <use xlink:href="#TimesNewRomanPSMT-64" x="116.699219"/>
     <use xlink:href="#TimesNewRomanPSMT-65" x="166.699219"/>
    </g>
   </g>
   <g id="patch_12">
    <path d="M 272.774493 441.949907 
Q 269.302003 442.652127 268.021216 442.911133 
" style="fill: none; stroke: #000000; stroke-width: 2; stroke-linecap: round"/>
    <path d="M 272.338276 444.078605 
L 268.021216 442.911133 
L 271.54543 440.157968 
" style="fill: none; stroke: #000000; stroke-width: 2; stroke-linecap: round"/>
   </g>
   <g id="patch_13">
    <path d="M 389.225115 374.717109 
Q 391.5695 372.060955 392.434199 371.081263 
" style="fill: none; stroke: #000000; stroke-width: 2; stroke-linecap: round"/>
    <path d="M 388.287782 372.75674 
L 392.434199 371.081263 
L 391.28673 375.403683 
" style="fill: none; stroke: #000000; stroke-width: 2; stroke-linecap: round"/>
   </g>
   <g id="text_40">
    <!-- Chinese -->
    <g transform="translate(320.46007 441.628153) rotate(-30) scale(0.16 -0.16)">
     <use xlink:href="#TimesNewRomanPSMT-43"/>
     <use xlink:href="#TimesNewRomanPSMT-68" x="66.699219"/>
     <use xlink:href="#TimesNewRomanPSMT-69" x="116.699219"/>
     <use xlink:href="#TimesNewRomanPSMT-6e" x="144.482422"/>
     <use xlink:href="#TimesNewRomanPSMT-65" x="194.482422"/>
     <use xlink:href="#TimesNewRomanPSMT-73" x="238.867188"/>
     <use xlink:href="#TimesNewRomanPSMT-65" x="277.783203"/>
    </g>
   </g>
   <g id="legend_1">
    <g id="line2d_20">
     <path d="M 364.016 260.979937 
L 378.016 260.979937 
L 392.016 260.979937 
" style="fill: none; stroke: #ff0000; stroke-width: 2; stroke-linecap: square"/>
    </g>
    <g id="text_41">
     <!-- LLaDA 8B Base -->
     <g transform="translate(403.216 265.879937) scale(0.14 -0.14)">
      <defs>
       <path id="TimesNewRomanPSMT-44" d="M 109 0 
L 109 116 
L 269 116 
Q 538 116 650 288 
Q 719 391 719 750 
L 719 3488 
Q 719 3884 631 3984 
Q 509 4122 269 4122 
L 109 4122 
L 109 4238 
L 1834 4238 
Q 2784 4238 3279 4022 
Q 3775 3806 4076 3303 
Q 4378 2800 4378 2141 
Q 4378 1256 3841 663 
Q 3238 0 2003 0 
L 109 0 
z
M 1319 306 
Q 1716 219 1984 219 
Q 2709 219 3187 728 
Q 3666 1238 3666 2109 
Q 3666 2988 3187 3494 
Q 2709 4000 1959 4000 
Q 1678 4000 1319 3909 
L 1319 306 
z
" transform="scale(0.015625)"/>
      </defs>
      <use xlink:href="#TimesNewRomanPSMT-4c"/>
      <use xlink:href="#TimesNewRomanPSMT-4c" x="61.083984"/>
      <use xlink:href="#TimesNewRomanPSMT-61" x="122.167969"/>
      <use xlink:href="#TimesNewRomanPSMT-44" x="166.552734"/>
      <use xlink:href="#TimesNewRomanPSMT-41" x="238.769531"/>
      <use xlink:href="#TimesNewRomanPSMT-20" x="305.486328"/>
      <use xlink:href="#TimesNewRomanPSMT-38" x="330.486328"/>
      <use xlink:href="#TimesNewRomanPSMT-42" x="380.486328"/>
      <use xlink:href="#TimesNewRomanPSMT-20" x="447.185547"/>
      <use xlink:href="#TimesNewRomanPSMT-42" x="472.185547"/>
      <use xlink:href="#TimesNewRomanPSMT-61" x="538.884766"/>
      <use xlink:href="#TimesNewRomanPSMT-73" x="583.269531"/>
      <use xlink:href="#TimesNewRomanPSMT-65" x="622.185547"/>
     </g>
    </g>
    <g id="line2d_21">
     <path d="M 364.016 280.774625 
L 378.016 280.774625 
L 392.016 280.774625 
" style="fill: none; stroke: #9400d3; stroke-width: 2; stroke-linecap: square"/>
    </g>
    <g id="text_42">
     <!-- LLaMA 3 8B Base -->
     <g transform="translate(403.216 285.674625) scale(0.14 -0.14)">
      <use xlink:href="#TimesNewRomanPSMT-4c"/>
      <use xlink:href="#TimesNewRomanPSMT-4c" x="61.083984"/>
      <use xlink:href="#TimesNewRomanPSMT-61" x="122.167969"/>
      <use xlink:href="#TimesNewRomanPSMT-4d" x="166.552734"/>
      <use xlink:href="#TimesNewRomanPSMT-41" x="255.46875"/>
      <use xlink:href="#TimesNewRomanPSMT-20" x="322.185547"/>
      <use xlink:href="#TimesNewRomanPSMT-33" x="347.185547"/>
      <use xlink:href="#TimesNewRomanPSMT-20" x="397.185547"/>
      <use xlink:href="#TimesNewRomanPSMT-38" x="422.185547"/>
      <use xlink:href="#TimesNewRomanPSMT-42" x="472.185547"/>
      <use xlink:href="#TimesNewRomanPSMT-20" x="538.884766"/>
      <use xlink:href="#TimesNewRomanPSMT-42" x="563.884766"/>
      <use xlink:href="#TimesNewRomanPSMT-61" x="630.583984"/>
      <use xlink:href="#TimesNewRomanPSMT-73" x="674.96875"/>
      <use xlink:href="#TimesNewRomanPSMT-65" x="713.884766"/>
     </g>
    </g>
    <g id="line2d_22">
     <path d="M 364.016 300.569312 
L 378.016 300.569312 
L 392.016 300.569312 
" style="fill: none; stroke: #0000ff; stroke-width: 2; stroke-linecap: square"/>
    </g>
    <g id="text_43">
     <!-- LLaMA 2 7B Base -->
     <g transform="translate(403.216 305.469312) scale(0.14 -0.14)">
      <use xlink:href="#TimesNewRomanPSMT-4c"/>
      <use xlink:href="#TimesNewRomanPSMT-4c" x="61.083984"/>
      <use xlink:href="#TimesNewRomanPSMT-61" x="122.167969"/>
      <use xlink:href="#TimesNewRomanPSMT-4d" x="166.552734"/>
      <use xlink:href="#TimesNewRomanPSMT-41" x="255.46875"/>
      <use xlink:href="#TimesNewRomanPSMT-20" x="322.185547"/>
      <use xlink:href="#TimesNewRomanPSMT-32" x="347.185547"/>
      <use xlink:href="#TimesNewRomanPSMT-20" x="397.185547"/>
      <use xlink:href="#TimesNewRomanPSMT-37" x="422.185547"/>
      <use xlink:href="#TimesNewRomanPSMT-42" x="472.185547"/>
      <use xlink:href="#TimesNewRomanPSMT-20" x="538.884766"/>
      <use xlink:href="#TimesNewRomanPSMT-42" x="563.884766"/>
      <use xlink:href="#TimesNewRomanPSMT-61" x="630.583984"/>
      <use xlink:href="#TimesNewRomanPSMT-73" x="674.96875"/>
      <use xlink:href="#TimesNewRomanPSMT-65" x="713.884766"/>
     </g>
    </g>
   </g>
  </g>
 </g>
 <defs>
  <clipPath id="p4fc80e4a29">
   <path d="M 447.12 225.36 
C 447.12 196.238744 441.383747 167.400655 430.239525 140.496122 
C 419.095303 113.591589 402.759838 89.143838 382.168 68.552 
C 361.576162 47.960162 337.128411 31.624697 310.223878 20.480475 
C 283.319345 9.336253 254.481256 3.6 225.36 3.6 
C 196.238744 3.6 167.400655 9.336253 140.496122 20.480475 
C 113.591589 31.624697 89.143838 47.960162 68.552 68.552 
C 47.960162 89.143838 31.624697 113.591589 20.480475 140.496122 
C 9.336253 167.400655 3.6 196.238744 3.6 225.36 
C 3.6 254.481256 9.336253 283.319345 20.480475 310.223878 
C 31.624697 337.128411 47.960162 361.576162 68.552 382.168 
C 89.143838 402.759838 113.591589 419.095303 140.496122 430.239525 
C 167.400655 441.383747 196.238744 447.12 225.36 447.12 
C 254.481256 447.12 283.319345 441.383747 310.223878 430.239525 
C 337.128411 419.095303 361.576162 402.759838 382.168 382.168 
C 402.759838 361.576162 419.095303 337.128411 430.239525 310.223878 
C 441.383747 283.319345 447.12 254.481256 447.12 225.36 
M 225.36 225.36 
C 225.36 225.36 225.36 225.36 225.36 225.36 
C 225.36 225.36 225.36 225.36 225.36 225.36 
C 225.36 225.36 225.36 225.36 225.36 225.36 
C 225.36 225.36 225.36 225.36 225.36 225.36 
C 225.36 225.36 225.36 225.36 225.36 225.36 
C 225.36 225.36 225.36 225.36 225.36 225.36 
C 225.36 225.36 225.36 225.36 225.36 225.36 
C 225.36 225.36 225.36 225.36 225.36 225.36 
C 225.36 225.36 225.36 225.36 225.36 225.36 
C 225.36 225.36 225.36 225.36 225.36 225.36 
C 225.36 225.36 225.36 225.36 225.36 225.36 
C 225.36 225.36 225.36 225.36 225.36 225.36 
C 225.36 225.36 225.36 225.36 225.36 225.36 
C 225.36 225.36 225.36 225.36 225.36 225.36 
C 225.36 225.36 225.36 225.36 225.36 225.36 
C 225.36 225.36 225.36 225.36 225.36 225.36 
z
"/>
  </clipPath>
 </defs>
</svg>
